<?xml version="1.0" encoding="UTF-8"?><svg xmlns="http://www.w3.org/2000/svg" viewBox="0 0 1980 293.11"><defs><style>.cls-1{fill:#87898c;}.cls-2{fill:#f4f5f5;opacity:.8;}.cls-3{fill:#d6d7d8;}.cls-4{fill:#d9dadb;}.cls-5{fill:#d1d3d3;}.cls-6{fill:#b4b5b7;}.cls-7{fill:#959799;}.cls-8{fill:#96989a;}.cls-9{fill:#bcbebf;}.cls-10{fill:#a4a5a7;}.cls-11{fill:#f8f9f9;opacity:.47;}.cls-12{fill:#dddedf;}.cls-13{fill:#a0a1a4;}.cls-14{fill:#8a8c8f;}.cls-15{fill:#fafbfb;opacity:.33;}.cls-16{fill:#fcfcfc;opacity:.2;}.cls-17{fill:#9d9ea1;}.cls-18{fill:#e4e5e6;}.cls-19{fill:#fdfdfd;opacity:.13;}.cls-20{fill:#aeafb1;}.cls-21{fill:#fefefe;opacity:.07;}.cls-22{fill:#c7c9ca;}.cls-23{fill:#929496;}.cls-24{fill:#ced0d1;}.cls-25{fill:#dedfe0;}.cls-26{fill:#fff;opacity:0;}.cls-27{fill:#86888b;}.cls-28{fill:#989a9c;}.cls-29{fill:#ebecec;}.cls-30{fill:#acadaf;}.cls-31{fill:#e6e7e7;}.cls-32{fill:#9c9ea0;}.cls-33{isolation:isolate;}.cls-34{fill:#eeefef;}.cls-35{fill:#eff0f0;}.cls-36{fill:#a2a3a6;}.cls-37{fill:#cdcfd0;}.cls-38{fill:#afb0b2;}.cls-39{fill:#c4c6c7;}.cls-40{fill:#8f9193;}.cls-41{fill:#a6a7a9;}.cls-42{fill:#b9babc;}.cls-43{fill:#d2d4d4;}.cls-44{fill:#828487;}.cls-45{fill:#b1b2b4;}.cls-46{fill:#e1e2e3;}.cls-47{fill:#d8d9da;}.cls-48{fill:#adaeb0;}.cls-49{fill:#abacae;}.cls-50{fill:#c0c2c3;}.cls-51{fill:#888a8d;}.cls-52{fill:#8b8d90;}.cls-53{fill:#a8a9ab;}.cls-54{fill:#f9fafa;opacity:.4;}.cls-55{fill:#bdbfc0;}.cls-56{fill:#f7f7f7;opacity:.6;}.cls-57{fill:#b5b6b8;}.cls-58{fill:#9fa0a3;}.cls-59{fill:#a7a8aa;}.cls-60{fill:#bfc1c2;}.cls-61{fill:#b3b4b6;}.cls-62{fill:#909294;}.cls-63{fill:#aaabad;}.cls-64{fill:#85878a;}.cls-65{fill:#f2f3f3;opacity:.93;}.cls-66{fill:#8e9092;}.cls-67{fill:#bec0c1;}.cls-68{fill:#999b9d;}.cls-69{fill:#e7e8e8;}.cls-70{fill:#c2c4c5;}.cls-71{fill:#d7d8d9;}.cls-72{fill:#e2e3e4;}.cls-73{fill:#8c8e90;}.cls-74{fill:#e3e4e5;}.cls-75{fill:#a3a4a6;}.cls-76{fill:#b8b9bb;}.cls-77{fill:#f1f2f2;}.cls-78{fill:#848689;}.cls-79{fill:#898b8e;}.cls-80{fill:#f3f4f4;opacity:.87;}.cls-81{fill:#c9cbcc;}.cls-82{fill:#c1c3c4;}.cls-83{fill:#fbfcfc;opacity:.27;}.cls-84{fill:#cbcdce;}.cls-85{fill:#e5e6e7;}.cls-86{fill:#f0f1f1;}.cls-87{fill:#8d8f91;}.cls-88{fill:#edeeee;}.cls-89{fill:#f8f8f8;opacity:.53;}.cls-90{fill:#a5a6a8;}.cls-91{fill:#808285;}.cls-92{fill:#d3d5d5;}.cls-93{fill:#9e9fa2;}.cls-94{fill:#e9eaea;}.cls-95{fill:#bbbdbe;}.cls-96{fill:#e8e9e9;}.cls-97{fill:#c8cacb;}.cls-98{fill:#b6b7b9;}.cls-99{fill:#d4d6d6;}.cls-100{fill:#838588;}.cls-101{fill:#e0e1e2;}.cls-102{fill:#dfe0e1;}.cls-103{fill:#9a9c9e;}.cls-104{fill:#919395;}.cls-105{fill:#dadbdc;}.cls-106{fill:#f5f5f5;opacity:.73;}.cls-107{fill:#eaebeb;}.cls-108{fill:#b9bbbc;}.cls-109{fill:#939597;}.cls-110{fill:#b7b8ba;}.cls-111{fill:#cccecf;}.cls-112{fill:#eceded;}.cls-113{fill:#97999b;}.cls-114{fill:#f6f6f6;opacity:.67;}.cls-115{fill:#cacccd;}.cls-116{fill:#dcddde;}.cls-117{fill:#cfd1d1;}.cls-118{fill:#b0b1b3;}.cls-119{fill:#a1a2a5;}.cls-120{fill:#dbdcdd;}.cls-121{fill:#a9aaac;}.cls-122{fill:#c3c5c6;}.cls-123{fill:#949698;}.cls-124{fill:#c5c7c8;}.cls-125{mix-blend-mode:multiply;}.cls-126{fill:#c6c8c9;}.cls-127{fill:#babcbd;}.cls-128{fill:#9b9d9f;}.cls-129{fill:#818386;}.cls-130{fill:#b2b3b5;}.cls-131{fill:#d0d2d2;}.cls-132{fill:#d5d6d7;}</style></defs><g class="cls-33"><g id="OBJECTS"><g class="cls-125"><g><path class="cls-26" d="m3.96,44.64c-.04.62-.14,1.24-.14,1.85.23,47.65,110.17,90.13,288.62,106.79,178.43,18.94,425.37,12.07,699.28,13.78,273.91-1.71,520.85,5.16,699.28-13.78,178.45-16.66,288.39-59.14,288.62-106.79,0-.62-.1-1.24-.14-1.85H3.96Z"/><path class="cls-21" d="m15.01,44.64c-.04.61-.14,1.21-.14,1.82.2,46.68,108.92,88.44,285.38,105.08,176.44,18.85,420.63,12.57,691.46,14.23,270.83-1.66,515.02,4.62,691.46-14.23,176.46-16.64,285.18-58.4,285.38-105.08,0-.61-.09-1.21-.14-1.82H15.01Z"/><path class="cls-19" d="m26.07,44.64c-.04.59-.14,1.19-.14,1.78.18,45.72,107.67,86.78,282.14,103.39,174.46,18.75,415.9,13.05,683.65,14.65,267.75-1.6,509.19,4.1,683.64-14.65,174.47-16.61,281.97-57.67,282.15-103.39,0-.59-.09-1.19-.14-1.78H26.07Z"/><path class="cls-16" d="m37.12,44.64c-.04.58-.14,1.16-.14,1.74.16,44.78,106.42,85.14,278.91,101.72,172.47,18.65,411.16,13.51,675.83,15.06,264.67-1.55,503.36,3.59,675.83-15.06,172.48-16.58,278.75-56.94,278.91-101.72,0-.58-.09-1.16-.14-1.74H37.12Z"/><path class="cls-83" d="m48.17,44.64c-.04.57-.13,1.14-.14,1.71.14,43.85,105.18,83.53,275.67,100.07,170.48,18.54,406.42,13.95,668.01,15.45,261.59-1.49,497.53,3.1,668.01-15.45,170.5-16.54,275.54-56.22,275.67-100.07,0-.57-.09-1.14-.14-1.71H48.17Z"/><path class="cls-15" d="m59.22,44.64c-.04.56-.13,1.12-.13,1.68.11,42.94,103.93,81.93,272.44,98.43,168.49,18.43,401.68,14.37,660.19,15.81,258.51-1.44,491.7,2.62,660.19-15.81,168.51-16.5,272.32-55.49,272.44-98.43,0-.56-.09-1.12-.14-1.68H59.22Z"/><path class="cls-54" d="m70.28,44.64c-.04.55-.13,1.09-.13,1.64.1,42.04,102.68,80.36,269.2,96.82,166.5,18.32,396.94,14.77,652.37,16.17,255.43-1.39,485.86,2.15,652.37-16.17,166.52-16.45,269.11-54.78,269.21-96.82,0-.55-.09-1.09-.14-1.64H70.28Z"/><path class="cls-11" d="m81.33,44.64c-.04.54-.13,1.07-.13,1.61.08,41.16,101.44,78.81,265.97,95.22,164.52,18.21,392.2,15.16,644.55,16.5,252.35-1.34,480.03,1.71,644.55-16.5,164.53-16.4,265.89-54.06,265.97-95.22,0-.54-.09-1.07-.13-1.61H81.33Z"/><path class="cls-89" d="m92.38,44.64c-.04.52-.13,1.05-.13,1.58.06,40.29,100.2,77.29,262.74,93.64,162.53,18.09,387.45,15.52,636.73,16.81,249.27-1.3,474.2,1.27,636.73-16.81,162.54-16.35,262.68-53.35,262.74-93.64,0-.53-.09-1.05-.13-1.58H92.38Z"/><path class="cls-56" d="m103.43,44.64c-.04.51-.13,1.03-.13,1.54.04,39.43,98.96,75.78,259.51,92.07,160.54,17.97,382.71,15.86,628.91,17.11,246.2-1.25,468.37.85,628.91-17.11,160.55-16.29,259.46-52.64,259.51-92.07,0-.52-.09-1.03-.13-1.54H103.43Z"/><path class="cls-114" d="m114.49,44.64c-.04.5-.13,1-.13,1.51.03,38.58,97.71,74.3,256.28,90.52,158.55,17.84,377.97,16.19,621.09,17.39,243.12-1.2,462.54.45,621.08-17.39,158.56-16.22,256.25-51.94,256.27-90.52,0-.51-.09-1.01-.13-1.51H114.49Z"/><path class="cls-106" d="m125.54,44.64c-.04.49-.13.98-.13,1.48.01,37.75,96.47,72.83,253.04,88.99,156.55,17.71,373.22,16.5,613.26,17.66,240.04-1.16,456.71.05,613.26-17.66,156.57-16.15,253.03-51.24,253.04-88.99,0-.5-.09-.99-.13-1.48H125.54Z"/><path class="cls-2" d="m136.59,44.64c-.04.48-.13.96-.13,1.45,0,36.93,95.23,71.39,249.81,87.47,154.56,17.58,368.47,16.79,605.44,17.91,236.97-1.11,450.88-.32,605.44-17.91,154.58-16.08,249.81-50.54,249.81-87.47,0-.49-.09-.97-.13-1.45H136.59Z"/><path class="cls-80" d="m147.65,44.64c-.04.47-.12.94-.13,1.42-.01,36.13,93.99,69.97,246.58,85.97,152.57,17.45,363.73,17.06,597.62,18.14,233.89-1.07,445.04-.69,597.62-18.14,152.59-16,246.6-49.84,246.58-85.97,0-.48-.09-.95-.13-1.42H147.65Z"/><path class="cls-65" d="m158.7,44.64c-.04.46-.12.92-.12,1.39-.03,35.34,92.76,68.57,243.35,84.49,150.58,17.31,358.98,17.32,589.79,18.35,230.82-1.03,439.21-1.04,589.79-18.35,150.6-15.92,243.38-49.15,243.35-84.49,0-.47-.08-.93-.12-1.39H158.7Z"/><path class="cls-77" d="m169.75,44.64c-.03.45-.12.9-.12,1.36-.04,34.56,91.52,67.18,240.12,83.02,148.59,17.17,354.23,17.56,581.97,18.55,227.74-.99,433.38-1.38,581.97-18.55,148.6-15.84,240.16-48.46,240.12-83.02,0-.46-.08-.91-.12-1.36H169.75Z"/><path class="cls-86" d="m175.52,44.64c-.03.45-.12.89-.12,1.34-.04,34.16,90.87,66.44,238.44,82.21,147.55,17.08,351.75,17.65,577.88,18.62,226.14-.97,430.34-1.54,577.88-18.62,147.56-15.77,238.48-48.06,238.44-82.21,0-.45-.08-.9-.12-1.34H175.52Z"/><path class="cls-35" d="m181.29,44.64c-.03.44-.12.88-.12,1.33-.05,33.76,90.23,65.71,236.75,81.41,146.51,16.99,349.27,17.73,573.8,18.68,224.53-.95,427.29-1.69,573.8-18.68,146.53-15.7,236.8-47.65,236.75-81.41,0-.45-.08-.88-.12-1.33H181.29Z"/><path class="cls-34" d="m187.05,44.64c-.03.44-.12.87-.12,1.31-.05,33.36,89.58,64.98,235.07,80.61,145.47,16.89,346.79,17.81,569.72,18.74,222.93-.93,424.25-1.85,569.72-18.74,145.49-15.64,235.12-47.25,235.07-80.61,0-.44-.08-.88-.12-1.31H187.05Z"/><path class="cls-88" d="m192.82,44.64c-.03.43-.12.86-.12,1.3-.06,32.97,88.94,64.25,233.38,79.82,144.43,16.8,344.31,17.88,565.63,18.79,221.32-.91,421.2-2,565.63-18.79,144.45-15.57,233.44-46.85,233.38-79.82,0-.44-.08-.87-.12-1.3H192.82Z"/><path class="cls-112" d="m198.59,44.64c-.03.43-.12.85-.12,1.28-.06,32.58,88.29,63.53,231.7,79.03,143.39,16.7,341.83,17.95,561.55,18.84,219.72-.89,418.16-2.14,561.55-18.84,143.41-15.5,231.76-46.45,231.7-79.03,0-.43-.08-.86-.12-1.28H198.59Z"/><path class="cls-29" d="m204.36,44.64c-.03.42-.12.84-.12,1.27-.07,32.2,87.65,62.82,230.02,78.25,142.35,16.6,339.35,18.02,557.46,18.89,218.11-.87,415.11-2.28,557.46-18.89,142.37-15.43,230.08-46.05,230.01-78.25,0-.43-.08-.85-.12-1.27H204.36Z"/><path class="cls-107" d="m210.13,44.64c-.03.42-.12.83-.12,1.25-.07,31.82,87,62.11,228.33,77.47,141.31,16.5,336.87,18.07,553.38,18.93,216.51-.85,412.07-2.42,553.38-18.93,141.33-15.36,228.4-45.65,228.33-77.47,0-.42-.08-.84-.12-1.25H210.13Z"/><path class="cls-94" d="m215.9,44.64c-.03.41-.12.82-.12,1.24-.08,31.44,86.36,61.41,226.65,76.69,140.27,16.41,334.39,18.13,549.3,18.96,214.91-.83,409.03-2.56,549.29-18.96,140.29-15.29,226.72-45.25,226.64-76.69,0-.42-.08-.83-.12-1.24H215.9Z"/><path class="cls-96" d="m221.66,44.64c-.03.41-.11.81-.12,1.22-.08,31.06,85.72,60.71,224.96,75.92,139.23,16.31,331.91,18.18,545.21,18.99,213.3-.81,405.98-2.69,545.21-18.99,139.25-15.21,225.04-44.86,224.96-75.92,0-.41-.08-.82-.12-1.22H221.66Z"/><path class="cls-69" d="m227.43,44.64c-.03.4-.11.8-.12,1.21-.09,30.69,85.07,60.01,223.28,75.15,138.19,16.21,329.43,18.23,541.13,19.02,211.7-.8,402.94-2.81,541.12-19.02,138.21-15.14,223.36-44.46,223.28-75.15,0-.41-.08-.81-.12-1.21H227.43Z"/><path class="cls-31" d="m233.2,44.64c-.03.4-.11.79-.12,1.2-.09,30.32,84.43,59.33,221.59,74.39,137.15,16.11,326.95,18.27,537.04,19.04,210.09-.78,399.89-2.94,537.04-19.04,137.16-15.06,221.68-44.07,221.59-74.39,0-.4-.08-.8-.12-1.2H233.2Z"/><path class="cls-85" d="m238.97,44.64c-.03.39-.11.78-.11,1.18-.09,29.95,83.78,58.64,219.91,73.63,136.11,16,324.47,18.3,532.96,19.06,208.49-.76,396.85-3.06,532.96-19.06,136.12-14.98,220-43.67,219.91-73.63,0-.4-.08-.79-.11-1.18H238.97Z"/><path class="cls-18" d="m244.74,44.64c-.03.39-.11.78-.11,1.17-.1,29.59,83.14,57.97,218.23,72.87,135.07,15.9,321.99,18.34,528.87,19.08,206.89-.74,393.8-3.18,528.87-19.08,135.08-14.91,218.32-43.28,218.22-72.87,0-.39-.08-.78-.11-1.17H244.74Z"/><path class="cls-74" d="m250.5,44.64c-.03.38-.11.77-.11,1.15-.1,29.23,82.5,57.29,216.54,72.12,134.03,15.8,319.5,18.36,524.79,19.09,205.28-.73,390.76-3.29,524.79-19.09,134.04-14.83,216.64-42.89,216.54-72.12,0-.39-.08-.77-.11-1.15H250.5Z"/><path class="cls-72" d="m256.27,44.64c-.03.38-.11.76-.11,1.14-.1,28.87,81.85,56.63,214.86,71.37,132.99,15.7,317.02,18.39,520.7,19.1,203.68-.71,387.71-3.4,520.7-19.1,133-14.75,214.96-42.5,214.86-71.37,0-.38-.08-.76-.11-1.14H256.27Z"/><path class="cls-46" d="m262.04,44.64c-.03.38-.11.75-.11,1.13-.1,28.52,81.21,55.96,213.18,70.63,131.95,15.59,314.54,18.41,516.62,19.1,202.08-.69,384.67-3.51,516.62-19.1,131.96-14.66,213.28-42.11,213.17-70.63,0-.38-.08-.75-.11-1.13H262.04Z"/><path class="cls-101" d="m267.81,44.64c-.03.37-.11.74-.11,1.11-.11,28.17,80.57,55.31,211.49,69.89,130.91,15.49,312.06,18.42,512.53,19.1,200.47-.68,381.63-3.61,512.53-19.1,130.92-14.58,211.6-41.72,211.49-69.89,0-.37-.07-.74-.11-1.11H267.81Z"/><path class="cls-102" d="m273.58,44.64c-.03.37-.11.73-.11,1.1-.11,27.82,79.93,54.66,209.81,69.15,129.87,15.38,309.58,18.43,508.45,19.09,198.87-.66,378.58-3.71,508.44-19.09,129.88-14.5,209.92-41.33,209.8-69.15,0-.37-.07-.73-.11-1.1H273.58Z"/><path class="cls-25" d="m279.34,44.64c-.03.36-.11.72-.11,1.09-.11,27.48,79.28,54.01,208.12,68.42,128.82,15.28,307.09,18.44,504.36,19.08,197.27-.64,375.54-3.81,504.36-19.08,128.84-14.42,208.23-40.95,208.12-68.42,0-.37-.07-.73-.11-1.09H279.34Z"/><path class="cls-12" d="m285.11,44.64c-.03.36-.11.71-.11,1.07-.11,27.14,78.64,53.36,206.44,67.69,127.78,15.17,304.61,18.44,500.27,19.07,195.67-.63,372.49-3.9,500.27-19.07,127.8-14.33,206.55-40.56,206.44-67.69,0-.36-.07-.72-.11-1.07H285.11Z"/><path class="cls-116" d="m290.88,44.64c-.03.35-.1.7-.11,1.06-.12,26.8,78,52.73,204.76,66.97,126.74,15.06,302.13,18.44,496.19,19.05,194.06-.61,369.45-3.99,496.19-19.05,126.76-14.24,204.87-40.17,204.75-66.97,0-.36-.07-.71-.11-1.06H290.88Z"/><path class="cls-120" d="m296.65,44.64c-.03.35-.1.7-.11,1.05-.12,26.46,77.36,52.09,203.07,66.25,125.7,14.96,299.64,18.43,492.1,19.03,192.46-.6,366.4-4.08,492.1-19.03,125.72-14.16,203.19-39.79,203.07-66.25,0-.35-.07-.7-.11-1.05H296.65Z"/><path class="cls-105" d="m302.42,44.64c-.03.35-.1.69-.11,1.04-.12,26.13,76.71,51.47,201.39,65.53,124.66,14.85,297.16,18.42,488.02,19,190.86-.58,363.36-4.16,488.02-19.01,124.67-14.07,201.51-39.41,201.39-65.53,0-.35-.07-.69-.1-1.04H302.42Z"/><path class="cls-4" d="m308.18,44.64c-.03.34-.1.68-.1,1.02-.12,25.8,76.07,50.84,199.71,64.82,123.62,14.74,294.68,18.41,483.93,18.98,189.26-.57,360.31-4.24,483.93-18.98,123.63-13.98,199.83-39.02,199.7-64.82,0-.34-.07-.68-.1-1.02H308.18Z"/><path class="cls-47" d="m313.95,44.64c-.03.34-.1.67-.1,1.01-.12,25.47,75.43,50.22,198.02,64.11,122.58,14.63,292.19,18.39,479.85,18.94,187.65-.55,357.27-4.32,479.85-18.94,122.59-13.89,198.14-38.64,198.02-64.11,0-.34-.07-.67-.1-1.01H313.95Z"/><path class="cls-71" d="m319.72,44.64c-.03.33-.1.66-.1,1-.12,25.14,74.79,49.61,196.34,63.41,121.54,14.52,289.71,18.37,475.76,18.91,186.05-.54,354.23-4.39,475.76-18.91,121.55-13.8,196.46-38.26,196.34-63.41,0-.34-.07-.67-.1-1H319.72Z"/><path class="cls-3" d="m325.49,44.64c-.03.33-.1.65-.1.99-.13,24.82,74.15,49,194.66,62.7,120.5,14.41,287.23,18.34,471.68,18.87,184.45-.53,351.18-4.46,471.68-18.87,120.51-13.71,194.78-37.88,194.65-62.7,0-.33-.07-.66-.1-.99H325.49Z"/><path class="cls-132" d="m331.26,44.64c-.03.32-.1.65-.1.97-.13,24.5,73.51,48.39,192.97,62.01,119.45,14.29,284.74,18.31,467.59,18.82,182.85-.51,348.14-4.53,467.59-18.82,119.47-13.61,193.1-37.5,192.97-62.01,0-.33-.07-.65-.1-.97H331.26Z"/><path class="cls-99" d="m337.02,44.64c-.03.32-.1.64-.1.96-.13,24.19,72.86,47.79,191.29,61.31,118.41,14.18,282.26,18.28,463.5,18.78,181.25-.5,345.09-4.59,463.5-18.78,118.43-13.52,191.42-37.12,191.29-61.31,0-.32-.07-.64-.1-.96H337.02Z"/><path class="cls-92" d="m342.79,44.64c-.03.32-.1.63-.1.95-.13,23.87,72.22,47.2,189.61,60.62,117.37,14.07,279.78,18.24,459.42,18.72,179.64-.49,342.05-4.65,459.42-18.72,117.38-13.42,189.73-36.75,189.6-60.62,0-.32-.07-.63-.1-.95H342.79Z"/><path class="cls-43" d="m348.56,44.64c-.03.31-.1.62-.1.94-.13,23.56,71.58,46.6,187.92,59.93,116.33,13.96,277.29,18.2,455.33,18.67,178.04-.47,339-4.71,455.33-18.67,116.34-13.33,188.05-36.37,187.92-59.93,0-.32-.07-.62-.1-.94H348.56Z"/><path class="cls-5" d="m354.33,44.64c-.03.31-.1.61-.1.93-.13,23.25,70.94,46.02,186.24,59.25,115.29,13.84,274.81,18.15,451.25,18.61,176.44-.46,335.96-4.77,451.25-18.61,115.3-13.23,186.37-35.99,186.24-59.25,0-.31-.07-.62-.1-.93H354.33Z"/><path class="cls-131" d="m360.1,44.64c-.03.3-.09.61-.1.91-.13,22.95,70.3,45.43,184.56,58.57,114.25,13.73,272.32,18.1,447.16,18.55,174.84-.45,332.92-4.82,447.16-18.55,114.26-13.13,184.69-35.62,184.56-58.57,0-.31-.07-.61-.1-.91H360.1Z"/><path class="cls-117" d="m365.86,44.64c-.03.3-.09.6-.1.9-.13,22.64,69.66,44.85,182.87,57.89,113.2,13.61,269.84,18.05,443.08,18.48,173.24-.43,329.87-4.87,443.07-18.48,113.22-13.03,183-35.25,182.87-57.89,0-.3-.06-.6-.1-.9H365.86Z"/><path class="cls-24" d="m371.63,44.64c-.03.3-.09.59-.09.89-.13,22.34,69.02,44.28,181.19,57.22,112.16,13.5,267.35,17.99,438.99,18.42,171.64-.42,326.83-4.92,438.99-18.42,112.17-12.94,181.32-34.87,181.19-57.22,0-.3-.06-.59-.09-.89H371.63Z"/><path class="cls-37" d="m377.4,44.64c-.03.29-.09.58-.09.88-.13,22.04,68.37,43.71,179.51,56.54,111.12,13.38,264.87,17.93,434.9,18.34,170.04-.41,323.78-4.96,434.9-18.34,111.13-12.84,179.64-34.5,179.51-56.54,0-.3-.06-.59-.09-.88H377.4Z"/><path class="cls-111" d="m383.17,44.64c-.03.29-.09.58-.09.87-.13,21.75,67.73,43.14,177.83,55.88,110.08,13.26,262.38,17.87,430.82,18.27,168.44-.4,320.74-5,430.82-18.27,110.09-12.73,177.95-34.13,177.82-55.88,0-.29-.06-.58-.09-.87H383.17Z"/><path class="cls-84" d="m388.94,44.64c-.03.28-.09.57-.09.86-.13,21.46,67.09,42.58,176.14,55.21,109.04,13.15,259.9,17.8,426.73,18.19,166.84-.39,317.7-5.04,426.73-18.19,109.05-12.63,176.27-33.76,176.14-55.21,0-.29-.06-.57-.09-.86H388.94Z"/><path class="cls-115" d="m394.71,44.64c-.03.28-.09.56-.09.84-.13,21.17,66.45,42.02,174.46,54.55,107.99,13.03,257.41,17.73,422.65,18.11,165.23-.38,314.65-5.08,422.64-18.11,108.01-12.53,174.59-33.39,174.46-54.55,0-.28-.06-.56-.09-.84H394.71Z"/><path class="cls-81" d="m400.47,44.64c-.03.28-.09.55-.09.83-.13,20.88,65.81,41.47,172.78,53.89,106.95,12.91,254.93,17.65,418.56,18.02,163.63-.37,311.61-5.11,418.56-18.02,106.96-12.43,172.91-33.02,172.77-53.89,0-.28-.06-.56-.09-.83H400.47Z"/><path class="cls-97" d="m406.24,44.64c-.02.27-.09.55-.09.82-.13,20.59,65.17,40.92,171.09,53.24,105.91,12.79,252.44,17.58,414.47,17.93,162.03-.36,308.56-5.14,414.47-17.93,105.92-12.32,171.22-32.65,171.09-53.24,0-.28-.06-.55-.09-.82H406.24Z"/><path class="cls-22" d="m412.01,44.64c-.02.27-.09.54-.09.81-.13,20.31,64.53,40.37,169.41,52.59,104.87,12.67,249.96,17.49,410.39,17.84,160.43-.35,305.52-5.17,410.39-17.84,104.88-12.22,169.54-32.28,169.41-52.59,0-.27-.06-.54-.09-.81H412.01Z"/><path class="cls-126" d="m417.78,44.64c-.02.27-.09.53-.09.8-.13,20.03,63.89,39.83,167.73,51.94,103.83,12.55,247.47,17.41,406.3,17.74,158.83-.33,302.48-5.19,406.3-17.74,103.84-12.11,167.86-31.91,167.72-51.94,0-.27-.06-.53-.09-.8H417.78Z"/><path class="cls-124" d="m423.55,44.64c-.02.26-.08.52-.09.79-.13,19.75,63.25,39.29,166.04,51.3,102.78,12.43,244.98,17.32,402.22,17.65,157.23-.32,299.43-5.21,402.22-17.65,102.79-12,166.17-31.55,166.04-51.3,0-.27-.06-.53-.09-.79H423.55Z"/><path class="cls-39" d="m429.31,44.64c-.02.26-.08.52-.09.78-.13,19.47,62.61,38.76,164.36,50.65,101.74,12.31,242.5,17.23,398.13,17.54,155.63-.32,296.39-5.23,398.13-17.54,101.75-11.9,164.49-31.18,164.36-50.65,0-.26-.06-.52-.08-.78H429.31Z"/><path class="cls-122" d="m435.08,44.64c-.02.26-.08.51-.09.77-.13,19.2,61.97,38.23,162.68,50.01,100.7,12.19,240.01,17.13,394.04,17.44,154.03-.31,293.35-5.25,394.04-17.44,100.71-11.79,162.8-30.82,162.68-50.01,0-.26-.06-.51-.08-.77H435.08Z"/><path class="cls-70" d="m440.85,44.64c-.02.25-.08.5-.08.76-.13,18.93,61.33,37.7,161,49.38,99.66,12.07,237.53,17.04,389.96,17.33,152.43-.3,290.3-5.27,389.96-17.33,99.67-11.68,161.12-30.45,160.99-49.38,0-.25-.06-.51-.08-.76H440.85Z"/><path class="cls-82" d="m446.62,44.64c-.02.25-.08.5-.08.75-.13,18.66,60.69,37.18,159.31,48.74,98.61,11.94,235.04,16.93,385.87,17.22,150.83-.29,287.26-5.28,385.87-17.22,98.62-11.57,159.44-30.09,159.31-48.74,0-.25-.06-.5-.08-.75H446.62Z"/><path class="cls-50" d="m452.39,44.64c-.02.25-.08.49-.08.74-.13,18.39,60.05,36.66,157.63,48.11,97.57,11.82,232.55,16.83,381.79,17.11,149.23-.28,284.22-5.29,381.79-17.11,97.58-11.46,157.75-29.72,157.63-48.11,0-.25-.06-.49-.08-.74H452.39Z"/><path class="cls-60" d="m458.15,44.64c-.02.24-.08.48-.08.73-.13,18.13,59.41,36.14,155.95,47.49,96.53,11.7,230.07,16.72,377.7,16.99,147.63-.27,281.17-5.29,377.7-16.99,96.54-11.34,156.07-29.36,155.94-47.49,0-.24-.05-.48-.08-.73H458.15Z"/><path class="cls-67" d="m463.92,44.64c-.02.24-.08.48-.08.72-.12,17.86,58.77,35.63,154.26,46.86,95.49,11.57,227.58,16.61,373.62,16.87,146.03-.26,278.13-5.3,373.61-16.87,95.5-11.23,154.38-29,154.26-46.86,0-.24-.05-.48-.08-.72H463.92Z"/><path class="cls-55" d="m469.69,44.64c-.02.24-.08.47-.08.71-.12,17.6,58.12,35.12,152.58,46.24,94.44,11.45,225.1,16.5,369.53,16.75,144.43-.25,275.08-5.3,369.53-16.75,94.45-11.12,152.7-28.64,152.58-46.24,0-.24-.05-.47-.08-.71H469.69Z"/><path class="cls-9" d="m475.46,44.64c-.02.23-.08.46-.08.7-.12,17.34,57.48,34.62,150.9,45.62,93.4,11.32,222.61,16.38,365.44,16.62,142.84-.24,272.04-5.3,365.44-16.62,93.41-11.01,151.02-28.28,150.89-45.62,0-.23-.05-.46-.08-.7H475.46Z"/><path class="cls-95" d="m481.23,44.64c-.02.23-.08.46-.08.69-.12,17.09,56.84,34.12,149.21,45.01,92.36,11.2,220.12,16.26,361.36,16.49,141.24-.24,269-5.3,361.36-16.49,92.37-10.89,149.33-27.92,149.21-45.01,0-.23-.05-.46-.08-.69H481.23Z"/><path class="cls-127" d="m486.99,44.64c-.02.23-.07.45-.08.68-.3,35.55,225.46,62.18,504.8,60.75,279.34,1.42,505.1-25.21,504.8-60.75,0-.23-.05-.45-.08-.68H486.99Z"/><path class="cls-108" d="m492.76,44.64c-.02.22-.07.44-.08.67-.3,34.98,222.9,61.38,499.03,60.01,276.14,1.37,499.33-25.04,499.03-60.01,0-.22-.05-.44-.07-.67H492.76Z"/><path class="cls-42" d="m498.53,44.64c-.02.22-.07.44-.07.66-.3,34.41,220.33,60.59,493.26,59.27,272.94,1.32,493.56-24.86,493.26-59.27,0-.22-.05-.44-.07-.66H498.53Z"/><path class="cls-76" d="m504.3,44.64c-.02.22-.07.43-.07.65-.29,33.85,217.76,59.8,487.49,58.52,269.74,1.27,487.78-24.67,487.49-58.52,0-.22-.05-.43-.07-.65H504.3Z"/><path class="cls-110" d="m510.07,44.64c-.02.21-.07.42-.07.64-.29,33.3,215.19,59,481.73,57.78,266.54,1.23,482.01-24.48,481.72-57.78,0-.21-.05-.42-.07-.64H510.07Z"/><path class="cls-98" d="m515.83,44.64c-.02.21-.07.42-.07.63-.28,32.75,212.61,58.21,475.96,57.03,263.34,1.18,476.24-24.28,475.95-57.03,0-.21-.05-.42-.07-.63h-951.77Z"/><path class="cls-57" d="m521.6,44.64c-.02.21-.07.41-.07.62-.28,32.21,210.04,57.42,470.19,56.29,260.15,1.14,470.46-24.08,470.18-56.29,0-.21-.05-.41-.07-.62h-940.23Z"/><path class="cls-6" d="m527.37,44.64c-.02.2-.07.4-.07.61-.28,31.67,207.47,56.63,464.42,55.54,256.95,1.09,464.69-23.87,464.42-55.54,0-.2-.05-.41-.07-.61h-928.7Z"/><path class="cls-61" d="m533.14,44.64c-.02.2-.07.4-.07.6-.27,31.14,204.9,55.85,458.65,54.8,253.75,1.05,458.92-23.66,458.65-54.8,0-.2-.05-.4-.07-.6h-917.16Z"/><path class="cls-130" d="m538.91,44.64c-.02.2-.07.39-.07.59-.27,30.61,202.33,55.06,452.88,54.05,250.55,1.01,453.14-23.44,452.88-54.05,0-.2-.05-.39-.07-.59h-905.62Z"/><path class="cls-45" d="m544.67,44.64c-.02.19-.07.39-.07.58-.26,30.09,199.76,54.27,447.11,53.31,247.35.97,447.37-23.21,447.11-53.31,0-.19-.05-.39-.07-.58h-894.09Z"/><path class="cls-118" d="m550.44,44.64c-.02.19-.06.38-.07.57-.26,29.57,197.19,53.49,441.34,52.56,244.16.93,441.6-22.99,441.34-52.56,0-.19-.04-.38-.07-.57h-882.55Z"/><path class="cls-38" d="m556.21,44.64c-.02.19-.06.37-.07.56-.25,29.06,194.62,52.71,435.57,51.81,240.96.89,435.82-22.75,435.57-51.81,0-.19-.04-.38-.06-.56h-871.02Z"/><path class="cls-20" d="m561.98,44.64c-.02.18-.06.37-.06.55-.25,28.56,192.05,51.92,429.8,51.07,237.76.86,430.05-22.51,429.8-51.07,0-.19-.04-.37-.06-.55h-859.48Z"/><path class="cls-48" d="m567.75,44.64c-.02.18-.06.36-.06.54-.24,28.06,189.47,51.14,424.04,50.32,234.56.82,424.28-22.27,424.03-50.32,0-.18-.04-.36-.06-.54h-847.94Z"/><path class="cls-30" d="m573.52,44.64c-.02.18-.06.36-.06.54-.24,27.56,186.9,50.36,418.27,49.58,231.37.78,418.5-22.02,418.26-49.58,0-.18-.04-.36-.06-.54h-836.41Z"/><path class="cls-49" d="m579.28,44.64c-.02.18-.06.35-.06.53-.23,27.07,184.33,49.58,412.5,48.83,228.17.75,412.73-21.77,412.5-48.83,0-.18-.04-.35-.06-.53h-824.87Z"/><path class="cls-63" d="m585.05,44.64c-.02.17-.06.34-.06.52-.23,26.58,181.76,48.8,406.73,48.09,224.97.72,406.95-21.51,406.73-48.09,0-.17-.04-.35-.06-.52h-813.34Z"/><path class="cls-121" d="m590.82,44.64c-.02.17-.06.34-.06.51-.22,26.1,179.18,48.03,400.96,47.34,221.78.68,401.18-21.24,400.96-47.34,0-.17-.04-.34-.06-.51h-801.8Z"/><path class="cls-53" d="m596.59,44.64c-.02.17-.06.33-.06.5-.22,25.62,176.61,47.25,395.19,46.6,218.58.65,395.41-20.98,395.19-46.6,0-.17-.04-.33-.06-.5h-790.26Z"/><path class="cls-59" d="m602.36,44.64c-.02.16-.06.33-.06.49-.21,25.14,174.04,46.47,389.42,45.85,215.38.62,389.63-20.7,389.42-45.85,0-.17-.04-.33-.06-.49h-778.73Z"/><path class="cls-41" d="m608.12,44.64c-.02.16-.06.32-.06.48-.21,24.68,171.47,45.7,383.65,45.1,212.19.59,383.86-20.43,383.65-45.1,0-.16-.04-.32-.06-.48h-767.19Z"/><path class="cls-90" d="m613.89,44.64c-.02.16-.05.32-.06.47-.2,24.21,168.89,44.92,377.88,44.36,208.99.57,378.09-20.15,377.88-44.36,0-.16-.04-.32-.05-.47h-755.65Z"/><path class="cls-10" d="m619.66,44.64c-.01.16-.05.31-.06.47-.2,23.75,166.32,44.15,372.12,43.61,205.8.54,372.31-19.86,372.11-43.61,0-.16-.04-.31-.05-.47h-744.12Z"/><path class="cls-75" d="m625.43,44.64c-.01.15-.05.3-.05.46-.19,23.29,163.75,43.38,366.35,42.87,202.6.51,366.54-19.57,366.34-42.87,0-.15-.04-.31-.05-.46h-732.58Z"/><path class="cls-36" d="m631.2,44.64c-.01.15-.05.3-.05.45-.19,22.84,161.17,42.61,360.58,42.12,199.41.49,360.76-19.28,360.57-42.12,0-.15-.04-.3-.05-.45h-721.05Z"/><path class="cls-119" d="m636.96,44.64c-.01.15-.05.29-.05.44-.18,22.39,158.6,41.83,354.81,41.37,196.21.46,354.99-18.98,354.81-41.37,0-.15-.04-.29-.05-.44h-709.51Z"/><path class="cls-13" d="m642.73,44.64c-.01.14-.05.29-.05.43-.18,21.95,156.02,41.07,349.04,40.63,193.02.44,349.22-18.68,349.04-40.63,0-.15-.03-.29-.05-.43h-697.97Z"/><path class="cls-58" d="m648.5,44.64c-.01.14-.05.28-.05.43-.17,21.51,153.45,40.3,343.27,39.88,189.82.42,343.44-18.37,343.27-39.88,0-.14-.03-.28-.05-.43h-686.44Z"/><path class="cls-93" d="m654.27,44.64c-.01.14-.05.28-.05.42-.17,21.07,150.88,39.53,337.5,39.13,186.63.39,337.67-18.06,337.5-39.13,0-.14-.03-.28-.05-.42h-674.9Z"/><path class="cls-17" d="m660.04,44.64c-.01.14-.05.27-.05.41-.16,20.64,148.3,38.76,331.73,38.39,183.43.37,331.89-17.75,331.73-38.39,0-.14-.03-.27-.05-.41h-663.37Z"/><path class="cls-32" d="m665.8,44.64c-.01.13-.05.27-.05.4-.16,20.21,145.73,37.99,325.96,37.64,180.24.35,326.12-17.43,325.96-37.64,0-.13-.03-.27-.05-.4h-651.83Z"/><path class="cls-128" d="m671.57,44.64c-.01.13-.05.26-.05.39-.16,19.79,143.15,37.23,320.19,36.89,177.04.33,320.35-17.11,320.19-36.89,0-.13-.03-.26-.05-.39h-640.29Z"/><path class="cls-103" d="m677.34,44.64c-.01.13-.05.26-.05.39-.15,19.37,140.58,36.46,314.43,36.15,173.85.31,314.57-16.78,314.42-36.15,0-.13-.03-.26-.04-.39h-628.76Z"/><path class="cls-68" d="m683.11,44.64c-.01.13-.04.25-.04.38-.15,18.95,138,35.7,308.66,35.4,170.66.29,308.8-16.45,308.65-35.4,0-.13-.03-.25-.04-.38h-617.22Z"/><path class="cls-28" d="m688.88,44.64c-.01.12-.04.25-.04.37-.14,18.53,135.43,34.93,302.89,34.65,167.46.28,303.03-16.12,302.88-34.65,0-.12-.03-.25-.04-.37h-605.69Z"/><path class="cls-113" d="m694.64,44.64c-.01.12-.04.24-.04.36-.14,18.12,132.85,34.17,297.12,33.91,164.27.26,297.25-15.78,297.12-33.91,0-.12-.03-.24-.04-.36h-594.15Z"/><path class="cls-8" d="m700.41,44.64c-.01.12-.04.24-.04.35-.13,17.72,130.27,33.4,291.35,33.16,161.08.24,291.48-15.45,291.35-33.16,0-.12-.03-.24-.04-.35h-582.61Z"/><path class="cls-7" d="m706.18,44.64c-.01.12-.04.23-.04.35-.13,17.31,127.7,32.64,285.58,32.41,157.88.23,285.7-15.1,285.58-32.41,0-.12-.03-.23-.04-.35h-571.08Z"/><path class="cls-123" d="m711.95,44.64c-.01.11-.04.23-.04.34-.12,16.91,125.12,31.88,279.81,31.67,154.69.21,279.93-14.76,279.81-31.67,0-.11-.03-.23-.04-.34h-559.54Z"/><path class="cls-109" d="m717.72,44.64c-.01.11-.04.22-.04.33-.12,16.51,122.55,31.12,274.04,30.92,151.5.2,274.16-14.41,274.04-30.92,0-.11-.03-.22-.04-.33h-548.01Z"/><path class="cls-23" d="m723.48,44.64c0,.11-.04.22-.04.32-.11,16.12,119.97,30.36,268.27,30.17,148.3.19,268.38-14.06,268.27-30.17,0-.11-.03-.22-.04-.32h-536.47Z"/><path class="cls-104" d="m729.25,44.64c0,.11-.04.21-.04.32-.11,15.73,117.39,29.6,262.5,29.43,145.11.17,262.61-13.7,262.5-29.43,0-.11-.03-.21-.04-.32h-524.93Z"/><path class="cls-62" d="m735.02,44.64c0,.1-.04.21-.04.31-.1,15.34,114.82,28.84,256.74,28.68,141.92.16,256.84-13.34,256.73-28.68,0-.1-.02-.21-.03-.31h-513.4Z"/><path class="cls-40" d="m740.79,44.64c0,.1-.04.2-.04.3-.1,14.95,112.24,28.08,250.97,27.93,138.73.15,251.06-12.98,250.96-27.93,0-.1-.02-.2-.03-.3h-501.86Z"/><path class="cls-66" d="m746.56,44.64c0,.1-.03.2-.03.29-.1,14.57,109.66,27.32,245.2,27.19,135.53.14,245.29-12.62,245.2-27.19,0-.1-.02-.2-.03-.29h-490.32Z"/><path class="cls-87" d="m752.32,44.64c0,.1-.03.19-.03.29-.09,14.19,107.09,26.56,239.43,26.44,132.34.13,239.52-12.25,239.43-26.44,0-.1-.02-.19-.03-.29h-478.79Z"/><path class="cls-73" d="m758.09,44.64c0,.09-.03.19-.03.28-.09,13.81,104.51,25.81,233.66,25.69,129.15.12,233.74-11.88,233.66-25.69,0-.09-.02-.19-.03-.28h-467.25Z"/><path class="cls-52" d="m763.86,44.64c0,.09-.03.18-.03.27-.08,13.44,101.93,25.05,227.89,24.94,125.96.11,227.97-11.51,227.89-24.94,0-.09-.02-.18-.03-.27h-455.72Z"/><path class="cls-14" d="m769.63,44.64c0,.09-.03.18-.03.26-.08,13.06,99.36,24.29,222.12,24.2,122.77.1,222.2-11.13,222.12-24.2,0-.09-.02-.18-.03-.26h-444.18Z"/><path class="cls-79" d="m775.4,44.64c0,.09-.03.17-.03.26-.08,12.69,96.78,23.54,216.35,23.45,119.58.09,216.43-10.76,216.35-23.45,0-.09-.02-.17-.03-.26h-432.64Z"/><path class="cls-51" d="m781.17,44.64c0,.08-.03.17-.03.25-.07,12.33,94.2,22.78,210.58,22.7,116.38.08,210.65-10.38,210.58-22.7,0-.08-.02-.17-.03-.25h-421.11Z"/><path class="cls-1" d="m786.93,44.64c0,.08-.03.16-.03.24-.07,11.96,91.62,22.03,204.81,21.96,113.19.07,204.88-9.99,204.81-21.96,0-.08-.02-.16-.03-.24h-409.57Z"/><path class="cls-27" d="m792.7,44.64c0,.08-.03.16-.03.24-.06,11.6,89.04,21.27,199.05,21.21,110,.07,199.11-9.61,199.04-21.21,0-.08-.02-.16-.03-.24h-398.04Z"/><path class="cls-64" d="m798.47,44.64c0,.08-.03.15-.03.23-.06,11.24,86.47,20.52,193.28,20.46,106.81.06,193.34-9.22,193.27-20.46,0-.08-.02-.15-.02-.23h-386.5Z"/><path class="cls-78" d="m804.24,44.64c0,.07-.03.15-.03.22-.06,10.88,83.89,19.77,187.51,19.71,103.62.05,187.56-8.83,187.51-19.71,0-.07-.02-.15-.02-.22h-374.96Z"/><path class="cls-100" d="m810.01,44.64c0,.07-.02.14-.02.21-.05,10.52,81.31,19.01,181.74,18.97,100.43.05,181.79-8.44,181.74-18.97,0-.07-.02-.14-.02-.21h-363.43Z"/><path class="cls-44" d="m815.77,44.64c0,.07-.02.14-.02.21-.05,10.17,78.73,18.26,175.97,18.22,97.24.04,176.02-8.05,175.97-18.22,0-.07-.02-.14-.02-.21h-351.89Z"/><path class="cls-129" d="m821.54,44.64c0,.07-.02.13-.02.2-.05,9.82,76.15,17.51,170.2,17.47,94.05.04,170.25-7.65,170.2-17.47,0-.07-.02-.13-.02-.2h-340.36Z"/><path class="cls-91" d="m827.31,44.64c0,.06-.02.13-.02.19-.04,9.47,73.57,16.76,164.43,16.72,90.86.03,164.47-7.26,164.43-16.72,0-.06-.01-.13-.02-.19h-328.82Z"/></g></g></g></g></svg>