<?xml version="1.0" encoding="UTF-8"?><svg xmlns="http://www.w3.org/2000/svg" viewBox="0 0 1980 293.11"><defs><style>.cls-1{fill:#bfc1c3;opacity:.96;}.cls-2{fill:#dedfe0;opacity:.54;}.cls-3{opacity:.62;}.cls-3,.cls-4{fill:#d9dadb;}.cls-5{opacity:.4;}.cls-5,.cls-6{fill:#d6d7d8;}.cls-7{fill:#86888b;opacity:.96;}.cls-8{fill:#cacbcd;opacity:.82;}.cls-9{fill:#b5b6b7;opacity:.64;}.cls-10{fill:#cbcccd;opacity:.48;}.cls-11{fill:#e9e9ea;opacity:.27;}.cls-12{fill:#eff0f0;opacity:.32;}.cls-13{fill:#c4c5c7;opacity:.53;}.cls-14{fill:#919395;opacity:.88;}.cls-15{fill:#ebebec;opacity:.26;}.cls-16{fill:#848689;opacity:.97;}.cls-17{fill:#cacbcc;opacity:.48;}.cls-18{fill:#87898c;opacity:.95;}.cls-19{opacity:.16;}.cls-19,.cls-20{fill:#f9f9f9;}.cls-21{fill:#b2b3b5;opacity:.66;}.cls-22{fill:#ebecec;opacity:.37;}.cls-23{fill:#f3f3f3;opacity:.2;}.cls-24{fill:#a5a6a8;opacity:.75;}.cls-25{fill:#cfd0d1;opacity:.45;}.cls-26{opacity:.17;}.cls-26,.cls-27{fill:#f8f8f8;}.cls-28{fill:#a3a4a6;opacity:.76;}.cls-29{opacity:.5;}.cls-29,.cls-30{fill:#c8c9cb;}.cls-31{fill:#a6a7a9;opacity:.74;}.cls-32{opacity:.61;}.cls-32,.cls-33{fill:#dadbdc;}.cls-34{fill:#8f9193;opacity:.9;}.cls-35{fill:#eceded;opacity:.36;}.cls-36{fill:#909294;opacity:.89;}.cls-37{opacity:.55;}.cls-37,.cls-38,.cls-39{fill:#dddedf;}.cls-40,.cls-41{opacity:.71;}.cls-40,.cls-42{fill:#d2d3d4;}.cls-43{fill:#c2c4c6;opacity:.92;}.cls-44{fill:#e1e2e2;opacity:.33;}.cls-45{fill:#c0c1c3;opacity:.55;}.cls-46{fill:#f6f6f7;opacity:.23;}.cls-47{fill:#e7e8e9;}.cls-47,.cls-48{opacity:.42;}.cls-49{fill:#e9eaeb;opacity:.4;}.cls-50{fill:#abacae;opacity:.7;}.cls-51{fill:#a2a3a5;opacity:.77;}.cls-52{fill:#e7e8e8;opacity:.28;}.cls-53{fill:#a8a9ab;opacity:.72;}.cls-54{fill:#e0e1e2;opacity:.51;}.cls-55{fill:#a4a5a7;opacity:.75;}.cls-56{fill:#b7b8b9;opacity:.62;}.cls-57{fill:#cfd0d2;opacity:.75;}.cls-58{fill:#c1c3c5;opacity:.93;}.cls-59{fill:#ededee;opacity:.24;}.cls-60{isolation:isolate;}.cls-61{opacity:.67;}.cls-61,.cls-62{fill:#d5d6d7;}.cls-63{fill:#c9cacc;opacity:.83;}.cls-64{opacity:.65;}.cls-64,.cls-65{fill:#d7d8d9;}.cls-66{fill:#e5e6e6;opacity:.3;}.cls-4{opacity:.38;}.cls-41{fill:#aaabad;}.cls-67{opacity:.21;}.cls-67,.cls-68{fill:#f2f2f3;}.cls-69{fill:#c2c3c5;opacity:.54;}.cls-70{fill:#bec0c2;opacity:.97;}.cls-71{opacity:.15;}.cls-71,.cls-72{fill:#fbfbfb;}.cls-73{opacity:.74;}.cls-73,.cls-74{fill:#d0d1d2;}.cls-75{fill:#babbbc;opacity:.6;}.cls-76{opacity:.36;}.cls-76,.cls-77{fill:#dcddde;}.cls-78{fill:#bcbdbe;opacity:.59;}.cls-79{fill:#f0f0f1;opacity:.22;}.cls-80{fill:#8c8e90;opacity:.92;}.cls-81{fill:#9e9fa2;opacity:.79;}.cls-82{fill:#efeff0;opacity:.23;}.cls-83{fill:#9a9b9e;opacity:.82;}.cls-38{opacity:.35;}.cls-84{fill:#bfc0c1;}.cls-84,.cls-39{opacity:.57;}.cls-33{opacity:.37;}.cls-85{fill:#959799;}.cls-85,.cls-86{opacity:.86;}.cls-87{fill:#b3b4b6;opacity:.65;}.cls-27{opacity:.2;}.cls-74{opacity:.44;}.cls-88{fill:#c3c5c6;opacity:.91;}.cls-89{fill:#e4e5e6;opacity:.46;}.cls-90{fill:#bdbebf;opacity:.58;}.cls-91{fill:#aeafb1;opacity:.68;}.cls-92{fill:#e2e3e3;opacity:.32;}.cls-93{fill:#f4f4f5;opacity:.25;}.cls-94{fill:#a9aaac;opacity:.72;}.cls-95{fill:#afb0b2;opacity:.68;}.cls-96{fill:#bdbfc1;opacity:.99;}.cls-97{fill:#b8b9ba;opacity:.61;}.cls-98{fill:#c5c6c8;opacity:.52;}.cls-99{fill:#c9cacb;opacity:.49;}.cls-100{fill:#bebfc0;opacity:.57;}.cls-101{fill:#b1b2b4;opacity:.66;}.cls-102{fill:#eaeaeb;opacity:.26;}.cls-103{fill:#a7a8aa;opacity:.73;}.cls-104{fill:#9fa0a3;opacity:.79;}.cls-105{fill:#898b8e;opacity:.94;}.cls-48,.cls-106{fill:#d3d4d5;}.cls-107{fill:#e1e2e3;opacity:.5;}.cls-108{fill:#8e9092;opacity:.9;}.cls-109{fill:#cdced0;opacity:.78;}.cls-110{fill:#e8e9ea;opacity:.41;}.cls-111{fill:#f1f1f2;opacity:.22;}.cls-86{fill:#c7c9ca;}.cls-112{fill:#8a8c8f;opacity:.93;}.cls-113{fill:#acadaf;opacity:.7;}.cls-114{fill:#f5f5f5;opacity:.19;}.cls-115{fill:#9c9da0;opacity:.81;}.cls-116{fill:#999a9d;opacity:.83;}.cls-117{fill:#a0a1a3;opacity:.78;}.cls-118{opacity:.68;}.cls-118,.cls-119{fill:#d4d5d6;}.cls-120{fill:#818386;opacity:.99;}.cls-121{fill:#e0e1e1;opacity:.33;}.cls-122{fill:#97989b;opacity:.84;}.cls-123{opacity:.17;}.cls-123,.cls-124{fill:#fafafa;}.cls-125{fill:#838588;opacity:.98;}.cls-126{fill:#c5c7c8;opacity:.88;}.cls-127{fill:#a1a2a4;opacity:.77;}.cls-65{opacity:.39;}.cls-128{fill:#eaebeb;opacity:.38;}.cls-124{opacity:.15;}.cls-129{fill:#939597;opacity:.87;}.cls-130{fill:#96979a;opacity:.85;}.cls-131{fill:#e6e7e8;opacity:.44;}.cls-119{opacity:.42;}.cls-20{opacity:.19;}.cls-132{fill:#929496;opacity:.88;}.cls-133{opacity:.17;}.cls-133,.cls-134{fill:#f7f7f7;}.cls-135{fill:#c4c6c7;opacity:.89;}.cls-136{fill:#b0b1b3;opacity:.67;}.cls-137{fill:#e3e4e4;opacity:.31;}.cls-138{opacity:.72;}.cls-138,.cls-139{fill:#d1d2d3;}.cls-72{opacity:.16;}.cls-140{fill:#cecfd0;opacity:.46;}.cls-139{opacity:.44;}.cls-141{fill:#808285;}.cls-142{fill:#f5f5f6;opacity:.24;}.cls-143{fill:#dedfdf;opacity:.35;}.cls-144{fill:#c7c8ca;opacity:.5;}.cls-145{fill:#b9babb;opacity:.61;}.cls-42{opacity:.43;}.cls-146{fill:#eeeeef;opacity:.24;}.cls-147{fill:#c1c2c4;opacity:.55;}.cls-148{fill:#f1f2f2;opacity:.29;}.cls-149{fill:#f0f1f1;opacity:.3;}.cls-150{opacity:.63;}.cls-150,.cls-151{fill:#d8d9da;}.cls-152{fill:#e6e7e7;opacity:.29;}.cls-153{fill:#8b8d8f;opacity:.92;}.cls-68,.cls-154{opacity:.28;}.cls-155{fill:#f4f4f4;opacity:.2;}.cls-151{opacity:.39;}.cls-156{fill:#e5e6e7;opacity:.45;}.cls-157{fill:#949698;opacity:.86;}.cls-158{fill:#b6b7b8;opacity:.63;}.cls-159{fill:#c6c7c9;opacity:.51;}.cls-160{fill:#c0c2c4;opacity:.95;}.cls-77{opacity:.58;}.cls-161{fill:#eeefef;opacity:.33;}.cls-162{fill:#cecfd1;opacity:.76;}.cls-163{fill:#bbbcbd;opacity:.59;}.cls-164{opacity:.59;}.cls-164,.cls-165{fill:#dbdcdd;}.cls-166{fill:#98999c;opacity:.83;}.cls-167{fill:#8d8f91;opacity:.91;}.cls-168{fill:#e4e5e5;opacity:.31;}.cls-169{fill:#dfe0e1;opacity:.53;}.cls-170{fill:#9d9ea1;opacity:.8;}.cls-171{fill:#f3f3f4;opacity:.26;}.cls-172{fill:#b4b5b7;opacity:.64;}.cls-173{fill:#c6c8c9;opacity:.87;}.cls-174{fill:#c3c4c6;opacity:.53;}.cls-175{fill:#bcbec0;}.cls-176{fill:#adaeb0;opacity:.69;}.cls-134{opacity:.21;}.cls-177{fill:#f6f6f6;opacity:.18;}.cls-178{fill:#cdcecf;opacity:.46;}.cls-179{fill:#fdfdfd;opacity:.13;}.cls-180{fill:#cccdce;opacity:.47;}.cls-181{fill:#828487;opacity:.99;}.cls-154{fill:#e8e8e9;}.cls-106{opacity:.7;}.cls-182{fill:#bfc0c2;opacity:.56;}.cls-183{opacity:.15;}.cls-183,.cls-184{fill:#fcfcfc;}.cls-185{fill:#ececed;opacity:.25;}.cls-186{mix-blend-mode:multiply;}.cls-187{fill:#e3e4e5;opacity:.47;}.cls-188{fill:#cbccce;opacity:.8;}.cls-30{opacity:.84;}.cls-189{fill:#888a8d;opacity:.94;}.cls-190{fill:#edeeee;opacity:.34;}.cls-184{opacity:.14;}.cls-191{fill:#cccdcf;opacity:.79;}.cls-192{fill:#85878a;opacity:.97;}.cls-6{opacity:.66;}.cls-193{fill:#9b9c9f;opacity:.81;}.cls-194{fill:#dfe0e0;opacity:.34;}.cls-165{opacity:.37;}.cls-195{fill:#e2e3e4;opacity:.49;}.cls-62{opacity:.41;}</style></defs><g class="cls-60"><g id="OBJECTS"><g class="cls-186"><g><path class="cls-175" d="m-2.64,56.56c0,.1-.04.21-.04.31.51,27.51,109.82,40.98,288.21,35.3,178.35-3.64,425.77-26.44,701.4-24.47,275.63-1.97,523.06,20.83,701.4,24.47,178.39,5.68,287.71-7.79,288.22-35.3,0-.1-.04-.21-.04-.31H-2.64Z"/><path class="cls-96" d="m-2.64,56.56c0,.1-.04.21-.04.31.52,27.51,109.87,41.38,288.3,35.71,178.39-3.57,425.86-26.68,701.53-24.69,275.67-1.97,523.03,21.14,701.31,24.71,178.32,5.66,287.57-8.22,288.09-35.72,0-.1-.04-.21-.04-.31H-2.64Z"/><path class="cls-70" d="m-2.64,56.56c0,.1-.04.21-.04.31.52,27.52,109.92,41.77,288.4,36.11,178.43-3.5,425.95-26.93,701.67-24.91,275.71-1.97,523.01,21.46,701.22,24.94,178.26,5.65,287.43-8.64,287.96-36.15,0-.1-.04-.21-.04-.31H-2.64Z"/><path class="cls-1" d="m-2.64,56.56c0,.1-.04.21-.04.31.53,27.52,109.96,42.17,288.49,36.51,178.48-3.43,426.04-27.17,701.8-25.13,275.76-1.96,522.98,21.77,701.12,25.18,178.19,5.63,287.3-9.06,287.83-36.57,0-.1-.04-.21-.04-.31H-2.64Z"/><path class="cls-160" d="m-2.64,56.56c0,.1-.04.21-.04.31.54,27.52,110.01,42.56,288.58,36.91,178.52-3.36,426.13-27.41,701.93-25.34,275.8-1.96,522.95,22.09,701.03,25.42,178.12,5.61,287.16-9.49,287.7-36.99,0-.1-.04-.21-.04-.31H-2.64Z"/><path class="cls-58" d="m-2.64,56.56c0,.1-.04.21-.04.31.55,27.53,110.06,42.95,288.67,37.32,178.56-3.29,426.22-27.65,702.06-25.56,275.84-1.95,522.93,22.4,700.94,25.66,178.05,5.6,287.02-9.91,287.57-37.41,0-.1-.04-.21-.04-.31H-2.64Z"/><path class="cls-43" d="m-2.64,56.56c0,.1-.04.21-.04.31.55,27.53,110.11,43.35,288.76,37.72,178.61-3.22,426.31-27.9,702.19-25.78,275.88-1.95,522.9,22.72,700.85,25.89,177.98,5.58,286.89-10.34,287.44-37.83,0-.1-.04-.21-.04-.31H-2.64Z"/><path class="cls-88" d="m-2.64,56.56c0,.1-.04.21-.04.31.56,27.53,110.16,43.74,288.85,38.12,178.65-3.15,426.4-28.14,702.33-26,275.92-1.95,522.88,23.04,700.75,26.13,177.91,5.56,286.75-10.76,287.31-38.25,0-.1-.04-.21-.04-.31H-2.64Z"/><path class="cls-135" d="m-2.64,56.56c0,.1-.04.21-.04.31.57,27.54,110.2,44.14,288.94,38.52,178.7-3.08,426.49-28.38,702.46-26.21,275.96-1.94,522.85,23.35,700.66,26.37,177.85,5.55,286.61-11.19,287.18-38.68,0-.1-.04-.21-.04-.31H-2.64Z"/><path class="cls-126" d="m-2.64,56.56c0,.1-.04.21-.04.31.57,27.54,110.25,44.53,289.03,38.92,178.74-3.01,426.58-28.63,702.59-26.43,276.01-1.93,522.82,23.67,700.57,26.61,177.78,5.53,286.48-11.61,287.05-39.1,0-.1-.04-.21-.04-.31H-2.64Z"/><path class="cls-173" d="m-2.64,56.56c0,.1-.04.21-.04.31.58,27.54,110.3,44.92,289.12,39.32,178.78-2.94,426.67-28.87,702.72-26.65,276.05-1.93,522.8,23.99,700.47,26.84,177.71,5.51,286.34-12.04,286.92-39.52,0-.1-.04-.21-.04-.31H-2.64Z"/><path class="cls-86" d="m-2.64,56.56c0,.1-.04.21-.04.31.59,27.55,110.35,45.32,289.21,39.72,178.83-2.88,426.76-29.11,702.86-26.86,276.09-1.92,522.77,24.31,700.38,27.08,177.64,5.49,286.21-12.46,286.79-39.94,0-.1-.04-.21-.04-.31H-2.64Z"/><path class="cls-30" d="m-2.64,56.56c0,.1-.04.21-.04.31.6,27.55,110.39,45.71,289.3,40.13,178.87-2.81,426.85-29.36,702.99-27.08,276.13-1.91,522.74,24.63,700.29,27.32,177.57,5.48,286.07-12.89,286.66-40.37,0-.1-.04-.21-.04-.31H-2.64Z"/><path class="cls-63" d="m-2.64,56.56c0,.1-.04.21-.04.31.6,27.55,110.44,46.1,289.39,40.53,178.92-2.74,426.94-29.6,703.12-27.29,276.17-1.91,522.72,24.94,700.19,27.56,177.5,5.46,285.93-13.32,286.53-40.79,0-.1-.04-.21-.04-.31H-2.64Z"/><path class="cls-8" d="m-2.64,56.56c0,.1-.04.21-.04.31.61,27.56,110.49,46.5,289.48,40.93,178.96-2.67,427.03-29.85,703.25-27.51,276.21-1.9,522.69,25.26,700.1,27.8,177.43,5.44,285.8-13.74,286.4-41.21,0-.1-.04-.21-.04-.31H-2.64Z"/><path class="cls-188" d="m-2.64,56.56c0,.1-.04.21-.04.31.62,27.56,110.54,46.89,289.57,41.33,179-2.6,427.12-30.09,703.38-27.73,276.25-1.89,522.67,25.58,700.01,28.04,177.37,5.42,285.66-14.17,286.27-41.64,0-.1-.04-.21-.04-.31H-2.64Z"/><path class="cls-191" d="m-2.64,56.56c0,.1-.04.21-.04.31.63,27.57,110.59,47.28,289.66,41.73,179.05-2.53,427.21-30.34,703.52-27.94,276.3-1.88,522.64,25.9,699.91,28.28,177.3,5.4,285.53-14.6,286.14-42.06,0-.1-.04-.21-.04-.31H-2.64Z"/><path class="cls-109" d="m-2.64,56.56c0,.1-.04.21-.04.31.63,27.57,110.63,47.68,289.76,42.13,179.09-2.46,427.3-30.58,703.65-28.16,276.34-1.87,522.61,26.22,699.82,28.52,177.23,5.39,285.39-15.03,286.01-42.48,0-.1-.04-.21-.04-.31H-2.64Z"/><path class="cls-162" d="m-2.64,56.56c0,.1-.04.21-.04.31.64,27.57,110.68,48.07,289.85,42.53,179.14-2.39,427.39-30.83,703.78-28.37,276.38-1.86,522.59,26.54,699.73,28.75,177.16,5.37,285.25-15.45,285.88-42.91,0-.1-.04-.21-.04-.31H-2.64Z"/><path class="cls-57" d="m-2.64,56.56c0,.1-.04.21-.04.31.65,27.58,110.73,48.46,289.94,42.92,179.18-2.33,427.49-31.07,703.92-28.58,276.42-1.85,522.56,26.86,699.63,28.99,177.09,5.35,285.12-15.88,285.75-43.33,0-.1-.04-.21-.04-.31H-2.64Z"/><path class="cls-73" d="m-2.64,56.56c0,.1-.04.21-.04.31.65,27.58,110.78,48.85,290.03,43.32,179.22-2.26,427.58-31.32,704.05-28.8,276.46-1.84,522.53,27.18,699.54,29.23,177.02,5.33,284.98-16.31,285.62-43.76,0-.1-.04-.21-.04-.31H-2.64Z"/><path class="cls-138" d="m-2.64,56.56c0,.1-.04.21-.04.31.66,27.59,110.82,49.25,290.12,43.72,179.27-2.19,427.67-31.56,704.18-29.01,276.5-1.83,522.51,27.5,699.45,29.47,176.95,5.31,284.84-16.74,285.49-44.18,0-.1-.04-.21-.04-.31H-2.64Z"/><path class="cls-40" d="m-2.64,56.56c0,.1-.04.21-.04.31.67,27.59,110.87,49.64,290.21,44.12,179.31-2.12,427.76-31.81,704.31-29.23,276.54-1.82,522.48,27.83,699.35,29.72,176.89,5.29,284.71-17.17,285.36-44.61,0-.1-.04-.21-.04-.31H-2.64Z"/><path class="cls-106" d="m-2.64,56.56c0,.1-.04.21-.04.31.68,27.6,110.92,50.03,290.3,44.52,179.36-2.05,427.85-32.06,704.45-29.44,276.59-1.8,522.45,28.15,699.26,29.96,176.82,5.27,284.57-17.6,285.23-45.03,0-.1-.04-.21-.04-.31H-2.64Z"/><path class="cls-118" d="m-2.64,56.56c0,.1-.04.21-.04.31.68,27.6,110.97,50.42,290.39,44.92,179.4-1.99,427.94-32.3,704.58-29.65,276.63-1.79,522.43,28.47,699.16,30.2,176.75,5.25,284.44-18.03,285.1-45.46,0-.1-.04-.21-.04-.31H-2.64Z"/><path class="cls-61" d="m-2.64,56.56c0,.1-.04.21-.04.31.69,27.61,111.01,50.82,290.48,45.31,179.44-1.92,428.03-32.55,704.71-29.87,276.67-1.78,522.4,28.79,699.07,30.44,176.68,5.23,284.3-18.46,284.97-45.89,0-.1-.04-.21-.04-.31H-2.64Z"/><path class="cls-6" d="m-2.64,56.56c0,.1-.04.21-.04.31.7,27.61,111.06,51.21,290.57,45.71,179.49-1.85,428.12-32.8,704.85-30.08,276.71-1.76,522.37,29.11,698.98,30.68,176.61,5.21,284.16-18.89,284.84-46.31,0-.1-.04-.21-.04-.31H-2.64Z"/><path class="cls-64" d="m-2.64,56.56c0,.1-.04.21-.04.31.71,27.62,111.11,51.6,290.66,46.11,179.53-1.78,428.21-33.05,704.98-30.29,276.75-1.75,522.35,29.44,698.88,30.92,176.54,5.19,284.03-19.32,284.71-46.74,0-.1-.04-.21-.04-.31H-2.64Z"/><path class="cls-150" d="m-2.64,56.56c0,.1-.04.21-.04.31.71,27.62,111.16,51.99,290.75,46.51,179.57-1.72,428.3-33.29,705.11-30.51,276.79-1.74,522.32,29.76,698.79,31.16,176.47,5.17,283.89-19.75,284.58-47.16,0-.1-.04-.21-.04-.31H-2.64Z"/><path class="cls-3" d="m-2.64,56.56c0,.1-.04.21-.04.31.72,27.63,111.2,52.39,290.84,46.9,179.62-1.65,428.39-33.54,705.25-30.72,276.83-1.72,522.29,30.08,698.69,31.4,176.41,5.15,283.76-20.18,284.45-47.59,0-.1-.04-.21-.04-.31H-2.64Z"/><path class="cls-32" d="m-2.64,56.56c0,.1-.04.21-.04.31.73,27.63,111.25,52.78,290.93,47.3,179.66-1.58,428.48-33.79,705.38-30.93,276.88-1.71,522.26,30.41,698.6,31.65,176.34,5.13,283.62-20.61,284.32-48.02,0-.1-.04-.21-.04-.31H-2.64Z"/><path class="cls-164" d="m-2.64,56.56c0,.1-.04.21-.04.31.74,27.64,111.3,53.17,291.02,47.7,179.71-1.52,428.58-34.04,705.51-31.14,276.92-1.69,522.24,30.73,698.5,31.89,176.27,5.11,283.49-21.04,284.19-48.44,0-.1-.04-.21-.04-.31H-2.64Z"/><path class="cls-77" d="m-2.64,56.56c0,.1-.04.21-.04.31.74,27.64,111.35,53.56,291.11,48.09,179.75-1.45,428.67-34.29,705.65-31.35,276.96-1.67,522.21,31.06,698.41,32.13,176.2,5.09,283.35-21.47,284.06-48.87,0-.1-.04-.21-.04-.31H-2.64Z"/><path class="cls-39" d="m-2.64,56.56c0,.1-.04.21-.04.31.75,27.65,111.39,53.95,291.2,48.49,179.79-1.38,428.76-34.53,705.78-31.56,277-1.66,522.18,31.38,698.32,32.37,176.13,5.07,283.21-21.9,283.93-49.3,0-.1-.04-.21-.04-.31H-2.64Z"/><path class="cls-37" d="m-2.64,56.56c0,.1-.04.21-.04.31.76,27.65,111.44,54.35,291.29,48.89,179.84-1.32,428.85-34.78,705.91-31.78,277.04-1.64,522.15,31.71,698.22,32.62,176.06,5.05,283.08-22.34,283.8-49.73,0-.1-.04-.21-.04-.31H-2.64Z"/><path class="cls-2" d="m-2.64,56.56c0,.1-.04.21-.04.31.77,27.66,111.49,54.74,291.39,49.28,179.88-1.25,428.94-35.03,706.05-31.99,277.08-1.62,522.13,32.03,698.13,32.86,175.99,5.03,282.94-22.77,283.68-50.16,0-.1-.04-.21-.04-.31H-2.64Z"/><path class="cls-169" d="m-2.64,56.56c0,.1-.04.21-.04.31.77,27.66,111.54,55.13,291.48,49.68,179.93-1.18,429.03-35.28,706.18-32.2,277.12-1.61,522.1,32.36,698.03,33.1,175.92,5.01,282.81-23.2,283.55-50.58,0-.1-.04-.21-.04-.31H-2.64Z"/><path class="cls-54" d="m-2.64,56.56c0,.1-.04.21-.04.31.78,27.67,111.58,55.52,291.57,50.07,179.97-1.12,429.12-35.53,706.31-32.41,277.17-1.59,522.07,32.69,697.94,33.34,175.86,4.99,282.67-23.64,283.42-51.01,0-.1-.04-.21-.04-.31H-2.64Z"/><path class="cls-107" d="m-2.64,56.56c0,.1-.04.21-.04.31.79,27.67,111.63,55.91,291.66,50.47,180.01-1.05,429.22-35.78,706.45-32.62,277.21-1.57,522.04,33.01,697.84,33.59,175.79,4.97,282.53-24.07,283.29-51.44,0-.1-.04-.21-.04-.31H-2.64Z"/><path class="cls-195" d="m-2.64,56.56c0,.1-.04.21-.04.31.8,27.68,111.68,56.3,291.75,50.86,180.06-.98,429.31-36.03,706.58-32.83,277.25-1.55,522.02,33.34,697.75,33.83,175.72,4.95,282.4-24.5,283.16-51.87,0-.1-.04-.21-.04-.31H-2.64Z"/><path class="cls-187" d="m-2.64,56.56c0,.1-.04.21-.04.31.8,27.69,111.72,56.69,291.84,51.26,180.1-.92,429.4-36.28,706.72-33.04,277.29-1.53,521.99,33.67,697.65,34.08,175.65,4.92,282.26-24.94,283.03-52.3,0-.1-.04-.21-.04-.31H-2.64Z"/><path class="cls-89" d="m-2.64,56.56c0,.1-.04.21-.04.31.81,27.69,111.77,57.09,291.93,51.65,180.15-.85,429.49-36.53,706.85-33.25,277.33-1.51,521.96,33.99,697.56,34.32,175.58,4.9,282.13-25.37,282.9-52.73,0-.1-.04-.21-.04-.31H-2.64Z"/><path class="cls-156" d="m-2.64,56.56c0,.1-.04.21-.04.31.82,27.7,111.82,57.48,292.02,52.05,180.19-.79,429.58-36.78,706.98-33.46,277.37-1.49,521.93,34.32,697.46,34.56,175.51,4.88,281.99-25.81,282.77-53.16,0-.1-.04-.21-.04-.31H-2.64Z"/><path class="cls-131" d="m-2.64,56.56c0,.1-.04.21-.04.31.83,27.7,111.87,57.87,292.11,52.44,180.23-.72,429.67-37.03,707.12-33.66,277.41-1.47,521.91,34.65,697.37,34.81,175.44,4.86,281.86-26.24,282.64-53.59,0-.1-.04-.21-.04-.31H-2.64Z"/><path class="cls-47" d="m-2.64,56.56c0,.1-.04.21-.04.31.42,12.91,28.4,28.72,78.81,39.02,50.41,10.6,123.25,15.69,213.39,14.02,90.14-1.37,197.58-9.5,317.17-18.49,119.59-8.69,251.34-18.24,390.08-15.59,138.73-1.67,269.19,8.32,386.91,17.14,117.71,9.11,222.67,17.05,310.37,18.12,87.69,1.38,158.12-4.1,206.72-14.97,48.61-10.57,75.4-26.53,75.79-39.26,0-.1-.04-.21-.04-.31H-2.64Z"/><path class="cls-110" d="m-2.64,56.56c0,.1-.04.21-.04.31.42,12.9,28.41,28.83,78.84,39.22,50.43,10.7,123.29,15.87,213.45,14.22,90.16-1.35,197.63-9.53,317.24-18.59,119.61-8.76,251.38-18.39,390.15-15.71,138.75-1.67,269.21,8.42,386.9,17.3,117.69,9.18,222.62,17.16,310.28,18.21,87.66,1.35,158.05-4.22,206.63-15.2,48.58-10.67,75.36-26.75,75.75-39.46,0-.1-.04-.21-.04-.31H-2.64Z"/><path class="cls-49" d="m-2.64,56.56c0,.1-.04.21-.04.31.43,12.89,28.43,28.93,78.87,39.43,50.44,10.8,123.33,16.05,213.51,14.41,90.18-1.33,197.67-9.56,317.31-18.68,119.64-8.82,251.43-18.54,390.21-15.82,138.77-1.67,269.22,8.52,386.89,17.47,117.67,9.25,222.56,17.27,310.19,18.29,87.62,1.33,157.98-4.34,206.54-15.42,48.56-10.78,75.32-26.97,75.71-39.67,0-.1-.04-.21-.04-.31H-2.64Z"/><path class="cls-128" d="m-2.64,56.56c0,.1-.04.21-.04.31.43,12.88,28.44,29.04,78.9,39.63,50.46,10.9,123.36,16.23,213.57,14.61,90.21-1.31,197.72-9.59,317.38-18.78,119.66-8.88,251.47-18.69,390.28-15.94,138.79-1.67,269.24,8.62,386.89,17.63,117.65,9.33,222.51,17.38,310.1,18.37,87.59,1.3,157.91-4.46,206.45-15.65,48.53-10.88,75.28-27.2,75.68-39.88,0-.1-.04-.21-.04-.31H-2.64Z"/><path class="cls-22" d="m-2.64,56.56c0,.1-.04.21-.04.31.43,12.87,28.46,29.14,78.93,39.83,50.47,11,123.4,16.41,213.63,14.8,90.23-1.3,197.76-9.61,317.44-18.88,119.68-8.95,251.52-18.84,390.34-16.05,138.81-1.67,269.25,8.71,386.88,17.8,117.63,9.4,222.46,17.49,310.01,18.46,87.56,1.28,157.84-4.58,206.35-15.87,48.51-10.99,75.24-27.42,75.64-40.08,0-.1-.04-.21-.04-.31H-2.64Z"/><path class="cls-35" d="m-2.64,56.56c0,.1-.04.21-.04.31.44,12.86,28.47,29.25,78.97,40.03,50.49,11.1,123.44,16.59,213.69,15,90.25-1.28,197.81-9.64,317.51-18.97,119.71-9.01,251.56-18.99,390.41-16.16,138.84-1.67,269.26,8.81,386.87,17.96,117.61,9.47,222.4,17.6,309.92,18.54,87.52,1.25,157.77-4.69,206.26-16.1,48.48-11.09,75.2-27.64,75.6-40.29,0-.1-.04-.21-.04-.31H-2.64Z"/><path class="cls-190" d="m-2.64,56.56c0,.1-.04.21-.04.31.44,12.85,28.49,29.35,79,40.23,50.51,11.2,123.47,16.77,213.75,15.2,90.27-1.26,197.85-9.67,317.58-19.07,119.73-9.08,251.61-19.13,390.48-16.28,138.86-1.67,269.28,8.91,386.87,18.13,117.59,9.54,222.35,17.71,309.84,18.62,87.49,1.23,157.71-4.81,206.17-16.33,48.46-11.19,75.16-27.86,75.57-40.5,0-.1-.04-.21-.04-.31H-2.64Z"/><path class="cls-161" d="m-2.64,56.56c0,.1-.04.21-.04.31.44,12.85,28.51,29.46,79.03,40.43,50.52,11.3,123.51,16.95,213.8,15.39,90.29-1.24,197.9-9.7,317.65-19.17,119.75-9.14,251.65-19.28,390.54-16.39,138.88-1.67,269.29,9.01,386.86,18.3,117.57,9.61,222.29,17.83,309.75,18.7,87.45,1.2,157.64-4.93,206.07-16.55,48.43-11.3,75.12-28.08,75.53-40.7,0-.1-.04-.21-.04-.31H-2.64Z"/><path class="cls-12" d="m-2.64,56.56c0,.1-.04.21-.04.31.45,12.84,28.52,29.56,79.06,40.63,50.54,11.4,123.55,17.13,213.86,15.59,90.32-1.22,197.94-9.73,317.71-19.26,119.77-9.2,251.7-19.43,390.61-16.5,138.9-1.67,269.3,9.11,386.85,18.46,117.55,9.68,222.24,17.94,309.66,18.79,87.42,1.18,157.57-5.05,205.98-16.78,48.41-11.4,75.08-28.31,75.49-40.91,0-.1-.04-.21-.04-.31H-2.64Z"/><path class="cls-149" d="m-2.64,56.56c0,.1-.04.21-.04.31.45,12.83,28.54,29.67,79.09,40.83,50.56,11.5,123.58,17.31,213.92,15.78,90.34-1.2,197.99-9.76,317.78-19.36,119.8-9.27,251.74-19.58,390.68-16.62,138.92-1.67,269.32,9.21,386.84,18.63,117.53,9.75,222.18,18.05,309.57,18.87,87.39,1.15,157.5-5.17,205.89-17.01,48.39-11.51,75.04-28.53,75.46-41.12,0-.1-.04-.21-.04-.31H-2.64Z"/><path class="cls-148" d="m-2.64,56.56c0,.1-.04.21-.04.31.46,12.82,28.55,29.77,79.12,41.03,50.57,11.59,123.62,17.49,213.98,15.97,90.36-1.18,198.03-9.79,317.85-19.46,119.82-9.33,251.79-19.73,390.74-16.73,138.94-1.67,269.33,9.31,386.84,18.8,117.51,9.82,222.13,18.16,309.48,18.95,87.35,1.13,157.43-5.29,205.8-17.24,48.36-11.61,75-28.75,75.42-41.33,0-.1-.04-.21-.04-.31H-2.64Z"/><path class="cls-68" d="m-2.64,56.56c0,.1-.04.21-.04.31.46,12.81,28.57,29.88,79.16,41.23,50.59,11.69,123.66,17.67,214.04,16.17,90.38-1.17,198.08-9.82,317.92-19.55,119.84-9.4,251.83-19.87,390.81-16.84,138.96-1.67,269.34,9.41,386.83,18.96,117.48,9.9,222.07,18.27,309.39,19.03,87.32,1.1,157.36-5.41,205.7-17.46,48.34-11.71,74.96-28.97,75.38-41.53,0-.1-.04-.21-.04-.31H-2.64Z"/><path class="cls-171" d="m-2.64,56.56c0,.1-.04.21-.04.31.46,12.8,28.58,29.98,79.19,41.43,50.6,11.79,123.69,17.85,214.1,16.36,90.4-1.15,198.12-9.85,317.99-19.65,119.87-9.46,251.88-20.02,390.88-16.95,138.98-1.67,269.36,9.51,386.82,19.13,117.46,9.97,222.02,18.38,309.31,19.11,87.28,1.08,157.3-5.53,205.61-17.69,48.31-11.82,74.92-29.2,75.35-41.74,0-.1-.04-.21-.04-.31H-2.64Z"/><path class="cls-93" d="m-2.64,56.56c0,.1-.04.21-.04.31.47,12.79,28.6,30.09,79.22,41.63,50.62,11.89,123.73,18.03,214.16,16.56,90.43-1.13,198.17-9.88,318.05-19.75,119.89-9.52,251.92-20.17,390.94-17.06,139-1.67,269.37,9.61,386.81,19.3,117.44,10.04,221.97,18.49,309.22,19.19,87.25,1.05,157.23-5.65,205.52-17.92,48.29-11.92,74.88-29.42,75.31-41.95,0-.1-.04-.21-.04-.31H-2.64Z"/><path class="cls-142" d="m-2.64,56.56c0,.1-.04.21-.04.31.47,12.78,28.62,30.19,79.25,41.83,50.64,11.99,123.77,18.21,214.21,16.75,90.45-1.11,198.21-9.91,318.12-19.85,119.91-9.59,251.97-20.32,391.01-17.17,139.02-1.66,269.38,9.71,386.81,19.47,117.42,10.11,221.91,18.6,309.13,19.28,87.22,1.03,157.16-5.77,205.42-18.15,48.26-12.03,74.85-29.64,75.27-42.15,0-.1-.04-.21-.04-.31H-2.64Z"/><path class="cls-46" d="m-2.64,56.56c0,.1-.04.21-.04.31.47,12.77,28.63,30.3,79.28,42.03,50.65,12.09,123.8,18.39,214.27,16.94,90.47-1.09,198.26-9.94,318.19-19.94,119.93-9.65,252.02-20.47,391.08-17.28,139.04-1.66,269.4,9.81,386.8,19.64,117.4,10.18,221.86,18.71,309.04,19.36,87.18,1,157.09-5.89,205.33-18.38,48.24-12.13,74.81-29.86,75.24-42.36,0-.1-.04-.21-.04-.31H-2.64Z"/><path class="cls-134" d="m-2.64,56.56c0,.1-.04.21-.04.31.48,12.77,28.65,30.4,79.32,42.23,50.67,12.19,123.84,18.57,214.33,17.14,90.49-1.07,198.3-9.97,318.26-20.04,119.96-9.71,252.06-20.61,391.14-17.39,139.07-1.66,269.41,9.91,386.79,19.81,117.38,10.25,221.8,18.82,308.95,19.44,87.15.97,157.02-6.01,205.24-18.61,48.21-12.24,74.77-30.09,75.2-42.57,0-.1-.04-.21-.04-.31H-2.64Z"/><path class="cls-27" d="m-2.64,56.56c0,.1-.04.21-.04.31.48,12.76,28.66,30.51,79.35,42.43,50.69,12.29,123.88,18.75,214.39,17.33,90.51-1.06,198.35-10,318.33-20.14,119.98-9.78,252.11-20.76,391.21-17.5,139.09-1.66,269.42,10.02,386.78,19.98,117.36,10.32,221.75,18.93,308.86,19.52,87.11.95,156.95-6.13,205.15-18.83,48.19-12.34,74.73-30.31,75.16-42.78,0-.1-.04-.21-.04-.31H-2.64Z"/><path class="cls-20" d="m-2.64,56.56c0,.1-.04.21-.04.31.49,12.75,28.68,30.61,79.38,42.63,50.7,12.39,123.91,18.93,214.45,17.52,90.53-1.04,198.39-10.03,318.39-20.24,120-9.84,252.15-20.91,391.28-17.61,139.11-1.65,269.43,10.12,386.78,20.15,117.34,10.39,221.69,19.05,308.78,19.6,87.08.92,156.89-6.25,205.05-19.06,48.16-12.45,74.69-30.53,75.13-42.98,0-.1-.04-.21-.04-.31H-2.64Z"/><path class="cls-123" d="m-2.64,56.56c0,.1-.04.21-.04.31.49,12.74,28.69,30.72,79.41,42.83,50.72,12.49,123.95,19.11,214.51,17.72,90.56-1.02,198.44-10.06,318.46-20.34,120.03-9.91,252.2-21.05,391.35-17.72,139.13-1.65,269.45,10.22,386.77,20.32,117.32,10.47,221.64,19.16,308.69,19.68,87.04.9,156.82-6.37,204.96-19.29,48.14-12.55,74.65-30.76,75.09-43.19,0-.1-.04-.21-.04-.31H-2.64Z"/><path class="cls-72" d="m-2.64,56.56c0,.1-.04.21-.04.31.49,12.73,28.71,30.82,79.44,43.03,50.73,12.58,123.99,19.29,214.57,17.91,90.58-1,198.48-10.09,318.53-20.43,120.05-9.97,252.24-21.2,391.41-17.83,139.15-1.65,269.46,10.32,386.76,20.49,117.3,10.54,221.58,19.27,308.6,19.76,87.01.87,156.75-6.49,204.87-19.52,48.12-12.66,74.61-30.98,75.05-43.4,0-.1-.04-.21-.04-.31H-2.64Z"/><path class="cls-183" d="m-2.64,56.56c0,.1-.04.21-.04.31.5,12.72,28.73,30.93,79.48,43.23,50.75,12.68,124.02,19.47,214.62,18.1,90.6-.99,198.53-10.12,318.6-20.53,120.07-10.03,252.29-21.35,391.48-17.94,139.17-1.65,269.47,10.43,386.75,20.66,117.28,10.61,221.53,19.38,308.51,19.84,86.98.84,156.68-6.61,204.78-19.75,48.09-12.76,74.57-31.2,75.02-43.61,0-.1-.04-.21-.04-.31H-2.64Z"/><path class="cls-179" d="m-2.64,56.56c0,.1-.04.21-.04.31.5,12.71,28.74,31.03,79.51,43.43,50.77,12.78,124.06,19.64,214.68,18.29,90.62-.97,198.57-10.15,318.67-20.63,120.1-10.1,252.33-21.49,391.55-18.05,139.19-1.64,269.49,10.53,386.75,20.83,117.26,10.68,221.47,19.49,308.42,19.92,86.94.82,156.61-6.73,204.68-19.98,48.07-12.87,74.53-31.43,74.98-43.81,0-.1-.04-.21-.04-.31H-2.64Z"/><path class="cls-184" d="m3.82,56.56c0,.1-.04.21-.04.31.48,12.49,28.52,30.47,78.95,42.65,50.43,12.56,123.25,19.31,213.29,18.02,90.04-.92,197.3-9.89,316.61-20.13,119.32-9.87,250.69-21.03,388.97-17.65,138.26-1.61,267.7,10.3,384.21,20.37,116.5,10.44,220.06,19.05,306.45,19.44,86.39.77,155.61-6.66,203.37-19.67,47.75-12.64,74.03-30.85,74.46-43.02,0-.1-.04-.21-.04-.31H3.82Z"/><path class="cls-71" d="m10.28,56.56c0,.1-.04.2-.04.3.45,12.26,28.3,29.91,78.4,41.87,50.1,12.33,122.44,18.99,211.9,17.75,89.46-.87,196.02-9.63,314.56-19.65,118.54-9.65,249.04-20.57,386.39-17.26,137.32-1.58,265.92,10.08,381.67,19.92,115.75,10.21,218.64,18.61,304.48,18.97,85.84.73,154.61-6.59,202.06-19.36,47.44-12.41,73.54-30.29,73.94-42.24,0-.1-.04-.2-.04-.3H10.28Z"/><path class="cls-124" d="m16.74,56.56c0,.1-.04.2-.04.3.43,12.04,28.08,29.36,77.85,41.11,49.76,12.11,121.64,18.66,210.51,17.48,88.87-.82,194.75-9.37,312.5-19.17,117.76-9.43,247.4-20.11,383.81-16.87,136.39-1.55,264.14,9.85,379.13,19.48,114.99,9.98,217.22,18.18,302.51,18.5,85.28.68,153.62-6.51,200.74-19.06,47.12-12.19,73.04-29.73,73.42-41.47,0-.1-.04-.2-.04-.3H16.74Z"/><path class="cls-19" d="m23.2,56.56c0,.1-.04.2-.04.29.41,11.82,27.87,28.81,77.29,40.36,49.43,11.9,120.83,18.34,209.12,17.22,88.29-.77,193.47-9.12,310.45-18.69,116.98-9.22,245.75-19.66,381.23-16.49,135.45-1.52,262.36,9.64,376.59,19.04,114.23,9.75,215.8,17.76,300.53,18.05,84.73.64,152.62-6.44,199.43-18.76,46.81-11.97,72.55-29.18,72.91-40.71,0-.09-.04-.19-.04-.29H23.2Z"/><path class="cls-26" d="m29.67,56.56c0,.09-.04.19-.04.29.39,11.61,27.65,28.28,76.74,39.61,49.09,11.68,120.02,18.03,207.73,16.95,87.71-.73,192.19-8.87,308.39-18.23,116.2-9.01,244.11-19.22,378.65-16.12,134.52-1.49,260.57,9.42,374.05,18.61,113.48,9.53,214.38,17.34,298.56,17.59,84.17.6,151.62-6.37,198.11-18.47,46.5-11.75,72.05-28.64,72.39-39.96,0-.09-.04-.19-.04-.29H29.67Z"/><path class="cls-133" d="m36.13,56.56c0,.09-.04.19-.04.28.37,11.4,27.44,27.75,76.2,38.88,48.76,11.47,119.21,17.71,206.33,16.69,87.12-.68,190.91-8.63,306.33-17.77,115.42-8.8,242.46-18.79,376.07-15.75,133.59-1.46,258.79,9.21,371.52,18.18,112.72,9.31,212.96,16.93,296.58,17.15,83.62.55,150.61-6.3,196.8-18.17,46.18-11.54,71.56-28.11,71.88-39.22,0-.09-.04-.19-.04-.28H36.13Z"/><path class="cls-177" d="m42.59,56.56c0,.09-.04.19-.04.28.35,11.19,27.22,27.23,75.65,38.15,48.43,11.26,118.4,17.41,204.94,16.44,86.54-.64,189.63-8.39,304.27-17.31,114.64-8.59,240.81-18.36,373.49-15.39,132.66-1.43,257.01,9,368.98,17.76,111.96,9.1,211.54,16.53,294.61,16.71,83.06.51,149.61-6.22,195.49-17.88,45.87-11.33,71.06-27.58,71.37-38.48,0-.09-.04-.18-.04-.28H42.59Z"/><path class="cls-114" d="m49.05,56.56c0,.09-.04.18-.04.27.33,10.98,27.01,26.71,75.1,37.44,48.09,11.05,117.6,17.1,203.55,16.18,85.95-.59,188.35-8.15,302.21-16.87,113.85-8.39,239.16-17.94,370.91-15.03,131.73-1.4,255.23,8.79,366.44,17.35,111.21,8.88,210.12,16.13,292.63,16.28,82.51.47,148.61-6.15,194.17-17.6,45.56-11.12,70.57-27.06,70.85-37.76,0-.09-.04-.18-.04-.27H49.05Z"/><path class="cls-155" d="m55.51,56.56c0,.09-.04.18-.04.27.31,10.77,26.8,26.2,74.55,36.73,47.76,10.85,116.79,16.8,202.16,15.93,85.37-.55,187.07-7.92,300.15-16.43,113.07-8.19,237.52-17.52,368.33-14.67,130.8-1.37,253.45,8.59,363.9,16.95,110.45,8.67,208.7,15.74,290.65,15.86,81.95.43,147.61-6.08,192.86-17.31,45.24-10.91,70.08-26.54,70.34-37.05,0-.09-.04-.18-.04-.27H55.51Z"/><path class="cls-23" d="m61.97,56.56c0,.09-.04.18-.04.26.29,10.57,26.58,25.7,74.01,36.04,47.42,10.65,115.98,16.51,200.76,15.69,84.78-.51,185.79-7.69,298.08-16,112.29-8,235.87-17.11,365.75-14.33,129.87-1.34,251.67,8.39,361.36,16.55,109.69,8.46,207.27,15.35,288.67,15.44,81.4.39,146.61-6.01,191.54-17.03,44.93-10.71,69.58-26.03,69.83-36.34,0-.08-.04-.17-.04-.26H61.97Z"/><path class="cls-67" d="m68.43,56.56c0,.08-.04.17-.04.26.27,10.37,26.37,25.2,73.47,35.35,47.09,10.45,115.17,16.21,199.37,15.44,84.2-.47,184.51-7.47,296.02-15.58,111.51-7.8,234.22-16.71,363.17-13.98,128.94-1.32,249.89,8.19,358.82,16.15,108.93,8.26,205.85,14.97,286.69,15.03,80.84.36,145.61-5.95,190.23-16.76,44.62-10.51,69.09-25.53,69.33-35.65,0-.08-.04-.17-.04-.26H68.43Z"/><path class="cls-111" d="m74.89,56.56c0,.08-.04.17-.04.25.26,10.17,26.16,24.71,72.92,34.67,46.76,10.25,114.37,15.92,197.98,15.2,83.61-.43,183.23-7.25,293.96-15.16,110.73-7.61,232.57-16.31,360.59-13.65,256.01-.7,480.42,32.2,641,30.18,160.56,2.71,257.29-29.51,257.73-51.24,0-.08-.04-.17-.04-.25H74.89Z"/><path class="cls-79" d="m81.35,56.56c0,.08-.04.17-.04.25.46,21.8,102.9,52.15,268.97,48.76,166.04,1.25,395.71-31.22,649.9-27.86,254.15-.69,477.02,31.44,636.48,29.4,159.45,2.59,255.5-28.99,255.91-50.3,0-.08-.04-.16-.04-.25H81.35Z"/><path class="cls-82" d="m87.81,56.56c0,.08-.04.16-.04.24.43,21.38,102.13,51.12,267.03,47.87,164.86,1.29,392.92-30.42,645.26-27.13,252.3-.68,473.61,30.69,631.95,28.64,158.34,2.47,253.71-28.48,254.09-49.37,0-.08-.04-.16-.04-.24H87.81Z"/><path class="cls-146" d="m94.27,56.56c0,.08-.04.16-.04.24.4,20.96,101.37,50.1,265.1,46.99,163.69,1.32,390.13-29.63,640.61-26.42,250.44-.67,470.2,29.95,627.43,27.89,157.23,2.36,251.92-27.97,252.27-48.46,0-.08-.04-.16-.04-.24H94.27Z"/><path class="cls-59" d="m100.73,56.56c0,.08-.04.16-.04.23.36,20.55,100.61,49.1,263.16,46.12,162.52,1.35,387.34-28.85,635.97-25.71,248.59-.65,466.8,29.22,622.91,27.15,156.12,2.24,250.13-27.46,250.45-47.55,0-.08-.04-.16-.04-.23H100.73Z"/><path class="cls-185" d="m107.19,56.56c0,.08-.04.15-.04.23.33,20.14,99.85,48.12,261.23,45.26,161.34,1.38,384.55-28.09,631.32-25.02,246.74-.64,463.39,28.51,618.39,26.42,155,2.13,248.34-26.97,248.63-46.66,0-.07-.04-.15-.04-.23H107.19Z"/><path class="cls-15" d="m113.65,56.56c0,.07-.04.15-.04.22.3,19.74,99.09,47.15,259.3,44.41,160.17,1.4,381.76-27.34,626.68-24.34,244.88-.63,459.98,27.8,613.86,25.71,153.89,2.03,246.55-26.48,246.81-45.78,0-.07-.04-.15-.04-.22H113.65Z"/><path class="cls-102" d="m120.12,56.56c0,.07-.04.15-.04.22.28,19.34,98.33,46.19,257.37,43.58,158.99,1.43,378.96-26.6,622.03-23.67,243.03-.62,456.58,27.11,609.34,25.01,152.77,1.92,244.76-26,244.99-44.91,0-.07-.04-.15-.04-.22H120.12Z"/><path class="cls-11" d="m126.58,56.56c0,.07-.04.14-.04.21.25,18.95,97.57,45.25,255.44,42.76,157.82,1.46,376.16-25.87,617.38-23.01,241.18-.61,453.17,26.43,604.81,24.31,151.66,1.82,242.97-25.52,243.18-44.06,0-.07-.04-.14-.04-.21H126.58Z"/><path class="cls-154" d="m133.04,56.56c0,.07-.04.14-.04.21.22,18.57,96.82,44.32,253.51,41.94,156.64,1.48,373.37-25.16,612.73-22.37,239.33-.6,449.76,25.76,600.28,23.64,150.54,1.72,241.18-25.05,241.36-43.21,0-.07-.04-.14-.04-.21H133.04Z"/><path class="cls-52" d="m139.5,56.56c0,.07-.04.14-.04.21.19,18.19,96.06,43.4,251.58,41.14,155.46,1.51,370.57-24.45,608.08-21.73,237.48-.59,446.35,25.1,595.76,22.97,149.43,1.62,239.39-24.58,239.54-42.38,0-.07-.04-.14-.04-.21H139.5Z"/><path class="cls-152" d="m145.96,56.56c0,.07-.04.14-.04.2.17,17.81,95.31,42.5,249.65,40.35,154.29,1.53,367.77-23.76,603.43-21.11,235.63-.58,442.94,24.45,591.23,22.31,148.31,1.52,237.6-24.13,237.73-41.56,0-.07-.04-.13-.04-.2H145.96Z"/><path class="cls-66" d="m152.42,56.56c0,.07-.04.13-.04.2.14,17.45,94.56,41.6,247.72,39.57,153.11,1.55,364.97-23.09,598.78-20.5,233.79-.56,439.53,23.81,586.7,21.67,147.19,1.42,235.81-23.67,235.91-40.75,0-.06-.03-.13-.04-.2H152.42Z"/><path class="cls-168" d="m158.88,56.56c0,.06-.04.13-.04.19.12,17.08,93.8,40.73,245.79,38.81,151.93,1.57,362.16-22.42,594.13-19.89,231.94-.55,436.12,23.19,582.17,21.04,146.08,1.33,234.02-23.23,234.1-39.95,0-.06-.03-.13-.04-.19H158.88Z"/><path class="cls-137" d="m165.34,56.56c0,.06-.04.13-.04.19.1,16.72,93.05,39.86,243.86,38.05,150.75,1.59,359.36-21.77,589.48-19.3,230.09-.54,432.71,22.57,577.64,20.41,144.96,1.24,232.23-22.79,232.29-39.16,0-.06-.03-.13-.04-.19H165.34Z"/><path class="cls-92" d="m171.8,56.56c0,.06-.04.13-.04.19.08,16.37,92.3,39.01,241.93,37.3,149.57,1.61,356.55-21.12,584.83-18.72,228.25-.53,429.3,21.97,573.11,19.8,143.84,1.15,230.43-22.36,230.47-38.38,0-.06-.04-.12-.04-.19H171.8Z"/><path class="cls-44" d="m178.26,56.56c0,.06-.04.12-.04.18.05,16.02,91.55,38.17,240.01,36.56,148.4,1.63,353.75-20.49,580.18-18.15,226.4-.52,425.9,21.37,568.58,19.2,142.72,1.06,228.64-21.93,228.66-37.62,0-.06-.03-.12-.04-.18H178.26Z"/><path class="cls-121" d="m184.72,56.56c0,.06-.04.12-.04.18.03,15.68,90.8,37.35,238.08,35.84,147.22,1.65,350.94-19.87,575.52-17.59,224.56-.51,422.48,20.79,564.05,18.62,141.6.98,226.85-21.51,226.85-36.86,0-.06-.03-.12-.04-.18H184.72Z"/><path class="cls-194" d="m191.18,56.56c0,.06-.04.12-.04.17.01,15.35,90.06,36.53,236.15,35.12,146.04,1.67,348.13-19.27,570.87-17.04,222.72-.5,419.07,20.21,559.52,18.04,140.48.9,225.06-21.09,225.04-36.12,0-.06-.03-.12-.04-.17H191.18Z"/><path class="cls-143" d="m197.64,56.56c0,.06-.04.12-.04.17,0,15.01,89.31,35.73,234.23,34.42,144.86,1.68,345.32-18.67,566.22-16.5,220.87-.49,415.66,19.65,554.99,17.47,139.36.82,223.26-20.68,223.23-35.39,0-.06-.03-.11-.04-.17H197.64Z"/><path class="cls-38" d="m204.1,56.56c0,.06-.04.11-.04.17-.02,14.69,88.56,34.95,232.3,33.72,143.68,1.7,342.51-18.08,561.56-15.97,219.03-.48,412.25,19.09,550.46,16.92,138.24.74,221.47-20.28,221.42-34.67,0-.05-.03-.11-.04-.17H204.1Z"/><path class="cls-76" d="m210.57,56.56c0,.05-.04.11-.04.16-.04,14.37,87.82,34.17,230.38,33.04,142.5,1.71,339.7-17.51,556.91-15.45,217.19-.47,408.84,18.55,545.92,16.37,137.12.66,219.67-19.88,219.61-33.95,0-.05-.03-.11-.04-.16H210.57Z"/><path class="cls-165" d="m217.03,56.56c0,.05-.04.11-.04.16-.06,14.05,87.07,33.41,228.45,32.36,141.32,1.73,336.88-16.95,552.25-14.94,215.35-.46,405.43,18.01,541.39,15.84,136,.58,217.88-19.49,217.8-33.25,0-.05-.03-.11-.04-.16H217.03Z"/><path class="cls-33" d="m223.49,56.56c0,.05-.04.11-.04.16-.07,13.74,86.33,32.65,226.53,31.7,140.14,1.74,334.07-16.39,547.6-14.45,213.51-.45,402.02,17.49,536.86,15.31,134.88.51,216.09-19.1,215.99-32.56,0-.05-.03-.1-.04-.16H223.49Z"/><path class="cls-4" d="m229.95,56.56c0,.05-.04.1-.04.15-.09,13.43,85.59,31.91,224.61,31.04,138.95,1.75,331.25-15.85,542.94-13.96,211.67-.44,398.61,16.98,532.32,14.8,133.76.44,214.29-18.72,214.18-31.88,0-.05-.03-.1-.04-.15H229.95Z"/><path class="cls-151" d="m236.41,56.56s-.03.1-.04.15c-.1,13.13,84.85,31.19,222.68,30.4,137.77,1.76,328.43-15.32,538.29-13.48,209.84-.44,395.2,16.47,527.79,14.3,132.63.37,212.5-18.34,212.37-31.21,0-.05-.03-.1-.04-.15H236.41Z"/><path class="cls-65" d="m242.87,56.56s-.03.1-.04.15c-.12,12.83,84.1,30.47,220.76,29.76,136.59,1.77,325.62-14.8,533.63-13.01,208-.43,391.79,15.98,523.25,13.8,131.51.3,210.7-17.97,210.56-30.55,0-.05-.03-.1-.04-.15H242.87Z"/><path class="cls-5" d="m249.33,56.56s-.03.1-.04.14c-.13,12.54,83.36,29.77,218.84,29.13,135.41,1.78,322.8-14.29,528.98-12.55,206.16-.42,388.38,15.49,518.72,13.32,130.39.24,208.91-17.61,208.75-29.9,0-.05-.03-.1-.04-.14H249.33Z"/><path class="cls-62" d="m255.79,56.56s-.03.09-.04.14c-.14,12.25,82.62,29.07,216.91,28.52,134.23,1.79,319.98-13.79,524.32-12.1,204.33-.41,384.96,15.02,514.18,12.85,129.27.17,207.11-17.25,206.95-29.26,0-.05-.03-.09-.04-.14H255.79Z"/><path class="cls-119" d="m262.25,56.56s-.03.09-.04.14c-.15,11.97,81.88,28.39,214.99,27.91,133.04,1.8,317.16-13.3,519.66-11.66,202.49-.4,381.55,14.55,509.65,12.38,128.14.11,205.31-16.9,205.14-28.63,0-.04-.03-.09-.04-.14H262.25Z"/><path class="cls-48" d="m268.71,56.56s-.03.09-.04.13c-.16,11.69,81.14,27.72,213.07,27.31,131.86,1.81,314.34-12.83,515.01-11.23,200.66-.39,378.14,14.09,505.11,11.93,127.02.05,203.52-16.55,203.33-28.01,0-.04-.03-.09-.04-.13H268.71Z"/><path class="cls-42" d="m275.17,56.56s-.03.09-.04.13c-.17,11.42,80.41,27.06,211.15,26.72,130.68,1.81,311.51-12.36,510.35-10.8,198.82-.38,374.73,13.64,500.57,11.49,125.89,0,201.72-16.2,201.53-27.4,0-.04-.03-.09-.04-.13H275.17Z"/><path class="cls-139" d="m281.63,56.56s-.03.09-.03.13c-.19,11.15,79.67,26.42,209.23,26.14,129.49,1.82,308.69-11.9,505.69-10.39,196.99-.37,371.32,13.2,496.04,11.05,124.77-.07,199.92-15.86,199.72-26.8,0-.04-.03-.08-.04-.13H281.63Z"/><path class="cls-74" d="m288.09,56.56s-.03.08-.03.12c-.19,10.88,78.93,25.78,207.3,25.57,128.31,1.83,305.87-11.45,501.04-9.99,195.16-.37,367.91,12.77,491.5,10.63,123.64-.12,198.13-15.53,197.91-26.21,0-.04-.03-.08-.04-.12H288.09Z"/><path class="cls-25" d="m294.55,56.56s-.03.08-.03.12c-.2,10.62,78.19,25.15,205.38,25.01,127.12,1.83,303.04-11.01,496.38-9.59,193.32-.36,364.5,12.35,486.96,10.21,122.52-.18,196.33-15.2,196.11-25.63,0-.04-.03-.08-.04-.12H294.55Z"/><path class="cls-140" d="m301.02,56.56s-.03.08-.03.12c-.21,10.37,77.46,24.54,203.46,24.46,125.94,1.83,300.22-10.58,491.72-9.21,191.49-.35,361.09,11.94,482.43,9.81,121.39-.23,194.53-14.88,194.3-25.06,0-.04-.03-.08-.04-.12H301.02Z"/><path class="cls-178" d="m307.48,56.56s-.03.08-.03.12c-.22,10.12,76.72,23.93,201.54,23.91,124.76,1.84,297.39-10.17,487.06-8.83,189.66-.34,357.67,11.54,477.89,9.41,120.26-.28,192.73-14.56,192.5-24.49,0-.04-.03-.08-.04-.12H307.48Z"/><path class="cls-180" d="m313.94,56.56s-.03.08-.03.11c-.23,9.87,75.99,23.34,199.62,23.38,123.57,1.84,294.56-9.76,482.4-8.46,187.83-.33,354.26,11.14,473.35,9.02,119.14-.33,190.93-14.25,190.69-23.94,0-.04-.03-.08-.04-.11H313.94Z"/><path class="cls-10" d="m320.4,56.56s-.03.07-.03.11c-.23,9.63,75.25,22.76,197.7,22.85,122.38,1.84,291.73-9.36,477.75-8.1,186-.33,350.85,10.76,468.81,8.64,118.01-.37,189.13-13.94,188.89-23.39,0-.04-.03-.07-.03-.11H320.4Z"/><path class="cls-17" d="m326.86,56.56s-.03.07-.03.11c-.24,9.39,74.52,22.19,195.78,22.33,121.2,1.84,288.9-8.97,473.09-7.75,184.17-.32,347.44,10.38,464.27,8.28,116.88-.42,187.33-13.64,187.08-22.86,0-.03-.03-.07-.03-.11H326.86Z"/><path class="cls-99" d="m333.32,56.56s-.03.07-.03.11c-.25,9.15,73.78,21.62,193.86,21.83,120.01,1.84,286.07-8.59,468.43-7.41,182.35-.31,344.03,10.01,459.73,7.92,115.76-.46,185.53-13.34,185.28-22.33,0-.03-.03-.07-.03-.11H333.32Z"/><path class="cls-29" d="m339.78,56.56s-.03.07-.03.1c-.25,8.93,73.05,21.07,191.94,21.32,118.83,1.84,283.24-8.22,463.77-7.08,180.52-.3,340.62,9.65,455.2,7.56,114.63-.5,183.73-13.04,183.47-21.81,0-.03-.03-.07-.03-.1H339.78Z"/><path class="cls-144" d="m346.24,56.56s-.03.07-.03.1c-.26,8.7,72.31,20.53,190.02,20.83,117.64,1.84,280.41-7.85,459.11-6.75,178.69-.3,337.21,9.3,450.66,7.22,113.5-.54,181.93-12.75,181.67-21.3,0-.03-.03-.07-.03-.1H346.24Z"/><path class="cls-159" d="m352.7,56.56s-.03.07-.03.1c-.26,8.48,71.58,20,188.1,20.35,116.45,1.83,277.58-7.5,454.46-6.43,176.87-.29,333.8,8.95,446.12,6.89,112.37-.58,180.13-12.47,179.86-20.8,0-.03-.03-.06-.03-.1H352.7Z"/><path class="cls-98" d="m359.16,56.56s-.03.06-.03.1c-.27,8.26,70.85,19.48,186.18,19.87,115.27,1.83,274.75-7.16,449.8-6.12,175.04-.28,330.39,8.61,441.58,6.56,111.24-.62,178.33-12.19,178.06-20.31,0-.03-.03-.06-.03-.1H359.16Z"/><path class="cls-13" d="m365.62,56.56s-.03.06-.03.09c-.27,8.05,70.12,18.96,184.26,19.4,114.08,1.83,271.92-6.82,445.14-5.82,173.22-.27,326.98,8.29,437.04,6.24,110.11-.66,176.53-11.91,176.25-19.82,0-.03-.03-.06-.03-.09H365.62Z"/><path class="cls-174" d="m372.08,56.56s-.03.06-.03.09c-.27,7.84,69.38,18.46,182.34,18.94,112.89,1.82,269.08-6.49,440.48-5.53,171.39-.27,323.57,7.96,432.5,5.94,108.99-.69,174.73-11.64,174.45-19.35,0-.03-.03-.06-.03-.09H372.08Z"/><path class="cls-69" d="m378.54,56.56s-.03.06-.03.09c-.27,7.63,68.65,17.97,180.42,18.49,111.7,1.82,266.25-6.18,435.82-5.24,169.57-.26,320.16,7.65,427.96,5.64,107.86-.72,172.93-11.37,172.64-18.88,0-.03-.03-.06-.03-.09H378.54Z"/><path class="cls-147" d="m385.01,56.56s-.03.06-.03.09c-.28,7.43,67.92,17.48,178.5,18.04,110.52,1.81,263.41-5.87,431.16-4.97,167.74-.25,316.75,7.35,423.42,5.34,106.73-.75,171.13-11.11,170.84-18.42,0-.03-.03-.06-.03-.09H385.01Z"/><path class="cls-45" d="m391.47,56.56s-.03.06-.03.08c-.28,7.23,67.19,17.01,176.58,17.61,109.33,1.81,260.58-5.56,426.5-4.7,165.92-.25,313.34,7.05,418.88,5.06,105.6-.78,169.32-10.85,169.04-17.97,0-.03-.03-.06-.03-.08H391.47Z"/><path class="cls-182" d="m397.93,56.56s-.03.05-.03.08c-.28,7.04,66.46,16.54,174.66,17.18,108.14,1.8,257.74-5.27,421.85-4.43,164.1-.24,309.93,6.76,414.34,4.78,104.47-.81,167.52-10.6,167.23-17.53,0-.03-.03-.05-.03-.08H397.93Z"/><path class="cls-84" d="m404.39,56.56s-.03.05-.03.08c-.28,6.85,65.73,16.09,172.74,16.76,106.95,1.79,254.91-4.99,417.19-4.18,162.28-.23,306.52,6.48,409.8,4.52,103.34-.84,165.72-10.35,165.43-17.09,0-.03-.03-.05-.03-.08H404.39Z"/><path class="cls-100" d="m410.85,56.56s-.03.05-.03.08c-.28,6.66,65,15.64,170.82,16.34,105.76,1.78,252.07-4.71,412.53-3.93,160.46-.23,303.11,6.2,405.26,4.26,102.2-.86,163.91-10.1,163.62-16.66,0-.02-.03-.05-.03-.08H410.85Z"/><path class="cls-90" d="m417.31,56.56s-.03.05-.03.08c-.28,6.48,64.27,15.2,168.9,15.93,104.57,1.78,249.23-4.44,407.87-3.69,158.64-.22,299.7,5.93,400.72,4,101.07-.89,162.11-9.86,161.82-16.24,0-.02-.03-.05-.03-.08H417.31Z"/><path class="cls-78" d="m423.77,56.56s-.03.05-.03.07c-.28,6.3,63.54,14.77,166.98,15.53,103.39,1.77,246.39-4.18,403.21-3.46,156.82-.22,296.29,5.67,396.18,3.76,99.94-.91,160.31-9.62,160.01-15.83,0-.02-.03-.05-.03-.07H423.77Z"/><path class="cls-163" d="m430.23,56.56s-.03.05-.03.07c-.28,6.13,62.81,14.35,165.06,15.14,102.2,1.76,243.55-3.93,398.55-3.24,155-.21,292.88,5.42,391.64,3.52,98.81-.93,158.5-9.39,158.21-15.43,0-.02-.03-.05-.03-.07H430.23Z"/><path class="cls-75" d="m436.69,56.56s-.03.05-.03.07c-.28,5.95,62.08,13.94,163.14,14.75,101.01,1.75,240.71-3.69,393.9-3.02,153.18-.2,289.47,5.17,387.11,3.29,97.68-.95,156.7-9.16,156.41-15.03,0-.02-.03-.05-.03-.07H436.69Z"/><path class="cls-145" d="m443.15,56.56s-.02.05-.03.07c-.28,5.79,61.35,13.54,161.22,14.38,99.82,1.73,237.88-3.45,389.24-2.81,151.36-.2,286.07,4.93,382.57,3.07,96.55-.97,154.89-8.93,154.6-14.64,0-.02-.03-.04-.03-.07H443.15Z"/><path class="cls-97" d="m449.61,56.56s-.02.04-.03.07c-.28,5.62,60.62,13.14,159.29,14,98.63,1.72,235.04-3.22,384.58-2.6,149.54-.19,282.66,4.7,378.03,2.85,95.42-.99,153.08-8.71,152.8-14.25,0-.02-.02-.04-.03-.07H449.61Z"/><path class="cls-56" d="m456.07,56.56s-.02.04-.03.06c-.28,5.46,59.89,12.76,157.37,13.64,97.44,1.71,232.19-3,379.92-2.4,147.73-.19,279.25,4.47,373.49,2.64,94.28-1,151.28-8.49,150.99-13.88,0-.02-.03-.04-.03-.06H456.07Z"/><path class="cls-158" d="m462.53,56.56s-.02.04-.03.06c-.28,5.3,59.16,12.38,155.45,13.28,96.25,1.7,229.35-2.78,375.27-2.21,145.91-.18,275.84,4.25,368.95,2.44,93.15-1.02,149.47-8.28,149.19-13.51,0-.02-.02-.04-.03-.06H462.53Z"/><path class="cls-9" d="m468.99,56.56s-.02.04-.02.06c-.28,5.15,58.43,12.01,153.53,12.93,95.06,1.68,226.51-2.58,370.61-2.03,144.09-.18,272.44,4.04,364.41,2.25,92.02-1.03,147.67-8.07,147.38-13.15,0-.02-.02-.04-.03-.06H468.99Z"/><path class="cls-172" d="m475.46,56.56s-.02.04-.02.06c-.28,5,57.7,11.65,151.61,12.58,93.87,1.67,223.67-2.38,365.95-1.85,142.28-.17,269.03,3.83,359.87,2.06,90.88-1.04,145.86-7.86,145.58-12.79,0-.02-.02-.04-.03-.06H475.46Z"/><path class="cls-87" d="m481.92,56.56s-.02.04-.02.06c-.28,4.85,56.97,11.29,149.69,12.25,92.68,1.65,220.83-2.19,361.29-1.68,140.46-.17,265.62,3.63,355.33,1.88,89.75-1.05,144.05-7.66,143.77-12.44,0-.02-.02-.04-.03-.06H481.92Z"/><path class="cls-21" d="m488.38,56.56s-.02.04-.02.06c-.27,4.7,56.24,10.95,147.77,11.91,91.48,1.64,217.99-2,356.64-1.52,138.65-.16,262.22,3.44,350.79,1.71,88.62-1.06,142.24-7.46,141.97-12.1,0-.02-.02-.04-.03-.06H488.38Z"/><path class="cls-101" d="m494.84,56.56s-.02.04-.02.05c-.27,4.56,55.51,10.61,145.85,11.59,90.29,1.62,215.14-1.82,351.98-1.36,136.83-.16,258.81,3.25,346.25,1.54,87.48-1.07,140.44-7.26,140.16-11.77,0-.02-.02-.04-.03-.05H494.84Z"/><path class="cls-136" d="m501.3,56.56s-.02.04-.02.05c-.27,4.42,54.78,10.28,143.93,11.27,89.1,1.61,212.3-1.65,347.32-1.21,135.02-.15,255.41,3.07,341.72,1.38,86.35-1.08,138.63-7.07,138.36-11.44,0-.02-.02-.03-.03-.05H501.3Z"/><path class="cls-95" d="m507.76,56.56s-.02.03-.02.05c-.27,4.29,54.05,9.95,142,10.95,87.91,1.59,209.46-1.48,342.67-1.06,133.21-.15,252,2.9,337.18,1.23,85.22-1.08,136.82-6.88,136.55-11.12,0-.02-.02-.03-.03-.05H507.76Z"/><path class="cls-91" d="m514.22,56.56s-.02.03-.02.05c-.26,4.16,53.32,9.64,140.08,10.65,86.72,1.57,206.62-1.33,338.01-.92,131.4-.14,248.6,2.73,332.64,1.08,84.08-1.09,135.01-6.69,134.74-10.8,0-.02-.02-.03-.03-.05h-945.43Z"/><path class="cls-176" d="m520.68,56.56s-.02.03-.02.05c-.26,4.03,52.59,9.33,138.16,10.35,85.53,1.55,203.77-1.17,333.36-.79,129.58-.14,245.19,2.56,328.1.94,82.95-1.09,133.2-6.51,132.94-10.49,0-.02-.02-.03-.02-.05h-932.51Z"/><path class="cls-113" d="m527.14,56.56s-.02.03-.02.05c-.26,3.9,51.86,9.03,136.24,10.05,84.33,1.54,200.93-1.03,328.7-.66,127.77-.13,241.79,2.41,323.56.8,81.81-1.09,131.39-6.33,131.13-10.19,0-.01-.02-.03-.02-.05h-919.59Z"/><path class="cls-50" d="m533.6,56.56s-.02.03-.02.04c-.25,3.78,51.13,8.73,134.31,9.76,83.14,1.52,198.08-.89,324.05-.54,125.96-.13,238.38,2.26,319.03.67,80.68-1.09,129.58-6.16,129.32-9.89,0-.01-.02-.03-.02-.04h-906.67Z"/><path class="cls-41" d="m540.06,56.56s-.02.03-.02.04c-.25,3.66,50.4,8.44,132.39,9.48,81.95,1.5,195.24-.76,319.39-.42,124.15-.12,234.98,2.11,314.49.55,79.54-1.09,127.77-5.98,127.52-9.6,0-.01-.02-.03-.02-.04h-893.74Z"/><path class="cls-94" d="m546.52,56.56s-.02.03-.02.04c-.24,3.54,49.67,8.16,130.47,9.2,80.76,1.48,192.39-.63,314.74-.31,122.34-.12,231.58,1.97,309.95.43,78.41-1.09,125.96-5.81,125.71-9.31,0-.01-.02-.03-.02-.04h-880.82Z"/><path class="cls-53" d="m552.98,56.56s-.02.03-.02.04c-.24,3.43,48.94,7.89,128.54,8.92,79.57,1.46,189.55-.51,310.08-.21,120.53-.11,228.18,1.83,305.42.32,77.27-1.09,124.14-5.64,123.9-9.03,0-.01-.02-.03-.02-.04h-867.9Z"/><path class="cls-103" d="m559.44,56.56s-.02.03-.02.04c-.24,3.31,48.21,7.62,126.62,8.66,78.37,1.44,186.7-.4,305.43-.11,118.72-.11,224.77,1.7,300.88.22,76.14-1.09,122.33-5.48,122.09-8.76,0-.01-.02-.03-.02-.04h-854.98Z"/><path class="cls-31" d="m565.91,56.56s-.02.03-.02.04c-.23,3.2,47.48,7.36,124.7,8.39,77.18,1.42,183.86-.29,300.77-.02,116.92-.11,221.37,1.58,296.34.12,75-1.08,120.52-5.32,120.29-8.49,0-.01-.02-.03-.02-.04h-842.06Z"/><path class="cls-24" d="m572.37,56.56s-.02.02-.02.04c-.23,3.1,46.75,7.1,122.77,8.14,75.99,1.39,181.01-.19,296.12.07,115.11-.1,217.97,1.46,291.81.02,73.87-1.08,118.71-5.16,118.48-8.23,0-.01-.02-.02-.02-.04h-829.14Z"/><path class="cls-55" d="m578.83,56.56s-.02.02-.02.04c-.22,2.99,46.02,6.86,120.85,7.89,74.79,1.37,178.17-.09,291.47.16,113.3-.1,214.57,1.35,287.27-.07,72.73-1.07,116.89-5.01,116.67-7.97,0-.01-.02-.02-.02-.04h-816.22Z"/><path class="cls-28" d="m585.29,56.56s-.02.02-.02.03c-.22,2.89,45.29,6.61,118.92,7.64,73.6,1.35,175.32,0,286.81.23,111.49-.09,211.17,1.24,282.74-.15,71.6-1.07,115.08-4.85,114.86-7.72,0-.01-.02-.02-.02-.03h-803.29Z"/><path class="cls-51" d="m591.75,56.56s-.02.02-.02.03c-.21,2.79,44.56,6.38,117,7.4,72.41,1.33,172.48.09,282.16.31,109.69-.09,207.77,1.13,278.2-.23,70.46-1.06,113.27-4.7,113.05-7.47,0-.01-.02-.02-.02-.03h-790.37Z"/><path class="cls-127" d="m598.21,56.56s-.02.02-.02.03c-.6,7.23,176.64,8.95,392.58,7.54,215.93,1.66,385.5-.35,384.91-7.54,0-.01-.02-.02-.02-.03h-777.45Z"/><path class="cls-117" d="m604.67,56.56s-.02.02-.02.03c-.59,6.94,173.68,8.71,386,7.37,212.32,1.56,379.14-.47,378.56-7.37,0-.01-.02-.02-.02-.03h-764.53Z"/><path class="cls-104" d="m611.13,56.56s-.02.02-.02.03c-.57,6.66,170.72,8.46,379.43,7.2,208.7,1.47,372.78-.58,372.22-7.2,0,0-.02-.02-.02-.03h-751.61Z"/><path class="cls-81" d="m617.59,56.56s-.02.02-.02.03c-.55,6.38,167.75,8.22,372.85,7.03,205.09,1.38,366.42-.68,365.87-7.03,0,0-.02-.02-.02-.03h-738.69Z"/><path class="cls-170" d="m624.05,56.56s-.01.02-.02.03c-.54,6.12,164.79,7.98,366.27,6.86,201.47,1.29,360.06-.78,359.53-6.86,0,0-.02-.02-.02-.03h-725.77Z"/><path class="cls-115" d="m630.51,56.56s-.01.02-.02.03c-.52,5.86,161.83,7.74,359.69,6.69,197.86,1.21,353.7-.86,353.19-6.69,0,0-.02-.02-.02-.03h-712.84Z"/><path class="cls-193" d="m636.97,56.56s-.01.02-.02.03c-.51,5.61,158.86,7.51,353.12,6.53,194.25,1.13,347.34-.94,346.84-6.53,0,0-.02-.02-.02-.03h-699.92Z"/><path class="cls-83" d="m643.43,56.56s-.01.02-.01.03c-.49,5.37,155.9,7.27,346.54,6.36,190.64,1.06,340.98-1.01,340.5-6.36,0,0-.02-.02-.02-.03h-687Z"/><path class="cls-116" d="m649.89,56.56s-.01.02-.01.02c-.47,5.14,152.93,7.04,339.96,6.19,187.03.98,334.62-1.07,334.15-6.19,0,0-.02-.02-.02-.02h-674.08Z"/><path class="cls-166" d="m656.36,56.56s-.01.02-.01.02c-.46,4.92,149.96,6.82,333.38,6.02,183.42.92,328.26-1.12,327.81-6.02,0,0-.02-.02-.02-.02h-661.16Z"/><path class="cls-122" d="m662.82,56.56s-.01.02-.01.02c-.44,4.7,146.99,6.59,326.8,5.85,179.81.85,321.9-1.17,321.46-5.85,0,0-.02-.01-.02-.02h-648.24Z"/><path class="cls-130" d="m669.28,56.56s-.01.01-.01.02c-.43,4.49,144.02,6.37,320.23,5.68,176.2.79,315.54-1.21,315.12-5.68,0,0-.02-.01-.02-.02h-635.31Z"/><path class="cls-85" d="m675.74,56.56s-.01.01-.01.02c-.41,4.29,141.05,6.15,313.65,5.51,172.59.73,309.18-1.24,308.77-5.51,0,0-.02-.01-.02-.02h-622.39Z"/><path class="cls-157" d="m682.2,56.56s-.01.01-.01.02c-.4,4.09,138.08,5.94,307.07,5.35,168.99.67,302.82-1.27,302.43-5.35,0,0-.01-.01-.02-.02h-609.47Z"/><path class="cls-129" d="m688.66,56.56s-.01.01-.01.02c-.38,3.9,135.11,5.72,300.49,5.18,165.38.62,296.46-1.29,296.08-5.18,0,0-.01-.01-.02-.02h-596.55Z"/><path class="cls-132" d="m695.12,56.56s-.01.01-.01.02c-.37,3.72,132.14,5.51,293.92,5.01,161.78.57,290.1-1.3,289.74-5.01,0,0-.01-.01-.02-.02h-583.63Z"/><path class="cls-14" d="m701.58,56.56s-.01.01-.01.02c-.35,3.55,129.16,5.3,287.34,4.84,158.18.52,283.74-1.3,283.39-4.84,0,0-.01-.01-.02-.02h-570.71Z"/><path class="cls-36" d="m708.04,56.56s-.01.01-.01.02c-.34,3.38,126.19,5.09,280.76,4.67,154.58.47,277.38-1.3,277.05-4.67,0,0-.01-.01-.02-.02h-557.79Z"/><path class="cls-34" d="m714.5,56.56s0,.01-.01.02c-.32,3.22,123.21,4.89,274.19,4.5,150.98.43,271.02-1.29,270.7-4.5,0,0-.01-.01-.01-.02h-544.86Z"/><path class="cls-108" d="m720.96,56.56s0,.01-.01.02c-.31,3.06,120.23,4.68,267.61,4.33,147.38.39,264.66-1.28,264.36-4.33,0,0-.01-.01-.01-.02h-531.94Z"/><path class="cls-167" d="m727.42,56.56s0,.01,0,.02c-.29,2.91,117.25,4.48,261.03,4.16,143.78.35,258.3-1.26,258.01-4.16,0,0-.01-.01-.01-.02h-519.02Z"/><path class="cls-80" d="m733.88,56.56s0,.01,0,.01c-.28,2.77,114.28,4.28,254.45,4,140.18.32,251.95-1.23,251.67-4,0,0-.01,0-.01-.01h-506.1Z"/><path class="cls-153" d="m740.34,56.56s0,0,0,.01c-.26,2.63,111.3,4.09,247.88,3.83,136.58.29,245.59-1.2,245.32-3.83,0,0-.01,0-.01-.01h-493.18Z"/><path class="cls-112" d="m746.81,56.56s0,0,0,.01c-.25,2.49,108.31,3.89,241.3,3.66,132.99.25,239.23-1.17,238.98-3.66,0,0-.01,0-.01-.01h-480.26Z"/><path class="cls-105" d="m753.27,56.56s0,0,0,.01c-.24,2.37,105.33,3.7,234.72,3.49,129.39.23,232.87-1.12,232.63-3.49,0,0-.01,0-.01-.01h-467.34Z"/><path class="cls-189" d="m759.73,56.56s0,0,0,.01c-.22,2.24,102.35,3.5,228.14,3.32,125.8.2,226.51-1.08,226.29-3.32,0,0-.01,0-.01-.01h-454.41Z"/><path class="cls-18" d="m766.19,56.56s0,0,0,.01c-.21,2.13,99.37,3.31,221.57,3.15,122.2.17,220.15-1.03,219.94-3.15,0,0-.01,0-.01-.01h-441.49Z"/><path class="cls-7" d="m772.65,56.56s0,0,0,.01c-.2,2.01,96.38,3.12,214.99,2.98,118.61.15,213.8-.97,213.6-2.98,0,0-.01,0-.01-.01h-428.57Z"/><path class="cls-192" d="m779.11,56.56s0,0,0,.01c-.19,1.91,93.4,2.94,208.41,2.81,115.02.13,207.44-.91,207.25-2.81,0,0-.01,0-.01-.01h-415.65Z"/><path class="cls-16" d="m785.57,56.56s0,0,0,.01c-.17,1.8,90.41,2.75,201.84,2.64,111.43.11,201.08-.84,200.91-2.64,0,0-.01,0-.01-.01h-402.73Z"/><path class="cls-125" d="m792.03,56.56s0,0,0,0c-.16,1.7,87.42,2.56,195.26,2.48,107.84.09,194.73-.77,194.56-2.48,0,0-.01,0-.01,0h-389.81Z"/><path class="cls-181" d="m798.49,56.56s0,0,0,0c-.15,1.61,84.43,2.38,188.68,2.31,104.25.08,188.37-.7,188.22-2.31,0,0-.01,0-.01,0h-376.88Z"/><path class="cls-120" d="m804.95,56.56s0,0,0,0c-.14,1.52,81.44,2.2,182.11,2.14,100.66.06,182.01-.62,181.87-2.14,0,0,0,0-.01,0h-363.96Z"/><path class="cls-141" d="m811.41,56.56s0,0,0,0c-.13,1.43,78.45,2.02,175.53,1.97,97.08.05,175.66-.54,175.53-1.97,0,0,0,0,0,0h-351.04Z"/></g></g></g></g></svg>